<svg width="35" height="19" viewBox="0 0 35 19" fill="none" xmlns="http://www.w3.org/2000/svg">
<g clip-path="url(#clip0_36_68)">
<path d="M30.5096 6.48348C29.7686 5.2765 28.7299 4.34027 27.3934 3.67523C26.6648 3.3128 25.8761 3.04917 25.0272 2.88434H21.8369V5.72697H22.5931C22.6469 5.72697 22.7003 5.72743 22.7535 5.72857V3.80132H25.6864C27.1627 3.80132 28.3487 4.21098 29.2111 5.0186C30.0772 5.82967 30.4982 6.90872 30.4982 8.31743C30.4982 9.72637 30.0772 10.8054 29.2111 11.6163C28.7551 12.0433 28.2087 12.359 27.5767 12.5617C27.4431 12.9516 27.2626 13.3101 27.0353 13.6377C28.1475 13.4415 29.0865 12.989 29.8376 12.2857C30.8029 11.3817 31.3292 10.1755 31.4053 8.69614C31.2227 7.89654 30.9241 7.15883 30.5096 6.48348ZM30.5096 6.48348C29.7686 5.2765 28.7299 4.34027 27.3934 3.67523C26.6648 3.3128 25.8761 3.04917 25.0272 2.88434H21.8369V5.72697H22.5931C22.6469 5.72697 22.7003 5.72743 22.7535 5.72857V3.80132H25.6864C27.1627 3.80132 28.3487 4.21098 29.2111 5.0186C30.0772 5.82967 30.4982 6.90872 30.4982 8.31743C30.4982 9.72637 30.0772 10.8054 29.2111 11.6163C28.7551 12.0433 28.2087 12.359 27.5767 12.5617C27.4431 12.9516 27.2626 13.3101 27.0353 13.6377C28.1475 13.4415 29.0865 12.989 29.8376 12.2857C30.8029 11.3817 31.3292 10.1755 31.4053 8.69614C31.2227 7.89654 30.9241 7.15883 30.5096 6.48348ZM30.5096 6.48348C29.7686 5.2765 28.7299 4.34027 27.3934 3.67523C26.6648 3.3128 25.8761 3.04917 25.0272 2.88434H21.8369V5.72697H22.5931C22.6469 5.72697 22.7003 5.72743 22.7535 5.72857V3.80132H25.6864C27.1627 3.80132 28.3487 4.21098 29.2111 5.0186C30.0772 5.82967 30.4982 6.90872 30.4982 8.31743C30.4982 9.72637 30.0772 10.8054 29.2111 11.6163C28.7551 12.0433 28.2087 12.359 27.5767 12.5617C27.4431 12.9516 27.2626 13.3101 27.0353 13.6377C28.1475 13.4415 29.0865 12.989 29.8376 12.2857C30.8029 11.3817 31.3292 10.1755 31.4053 8.69614C31.2227 7.89654 30.9241 7.15883 30.5096 6.48348ZM30.5096 6.48348C29.7686 5.2765 28.7299 4.34027 27.3934 3.67523C26.6648 3.3128 25.8761 3.04917 25.0272 2.88434H21.8369V5.72697H22.5931C22.6469 5.72697 22.7003 5.72743 22.7535 5.72857V3.80132H25.6864C27.1627 3.80132 28.3487 4.21098 29.2111 5.0186C30.0772 5.82967 30.4982 6.90872 30.4982 8.31743C30.4982 9.72637 30.0772 10.8054 29.2111 11.6163C28.7551 12.0433 28.2087 12.359 27.5767 12.5617C27.4431 12.9516 27.2626 13.3101 27.0353 13.6377C28.1475 13.4415 29.0865 12.989 29.8376 12.2857C30.8029 11.3817 31.3292 10.1755 31.4053 8.69614C31.2227 7.89654 30.9241 7.15883 30.5096 6.48348ZM30.5096 6.48348C29.7686 5.2765 28.7299 4.34027 27.3934 3.67523C26.6648 3.3128 25.8761 3.04917 25.0272 2.88434H21.8369V5.72697H22.5931C22.6469 5.72697 22.7003 5.72743 22.7535 5.72857V3.80132H25.6864C27.1627 3.80132 28.3487 4.21098 29.2111 5.0186C30.0772 5.82967 30.4982 6.90872 30.4982 8.31743C30.4982 9.72637 30.0772 10.8054 29.2111 11.6163C28.7551 12.0433 28.2087 12.359 27.5767 12.5617C27.4431 12.9516 27.2626 13.3101 27.0353 13.6377C28.1475 13.4415 29.0865 12.989 29.8376 12.2857C30.8029 11.3817 31.3292 10.1755 31.4053 8.69614C31.2227 7.89654 30.9241 7.15883 30.5096 6.48348ZM30.5096 6.48348C29.7686 5.2765 28.7299 4.34027 27.3934 3.67523C26.6648 3.3128 25.8761 3.04917 25.0272 2.88434H21.8369V5.72697H22.5931C22.6469 5.72697 22.7003 5.72743 22.7535 5.72857V3.80132H25.6864C27.1627 3.80132 28.3487 4.21098 29.2111 5.0186C30.0772 5.82967 30.4982 6.90872 30.4982 8.31743C30.4982 9.72637 30.0772 10.8054 29.2111 11.6163C28.7551 12.0433 28.2087 12.359 27.5767 12.5617C27.4431 12.9516 27.2626 13.3101 27.0353 13.6377C28.1475 13.4415 29.0865 12.989 29.8376 12.2857C30.8029 11.3817 31.3292 10.1755 31.4053 8.69614C31.2227 7.89654 30.9241 7.15883 30.5096 6.48348ZM30.5096 6.48348C29.7686 5.2765 28.7299 4.34027 27.3934 3.67523C26.6648 3.3128 25.8761 3.04917 25.0272 2.88434H21.8369V5.72697H22.5931C22.6469 5.72697 22.7003 5.72743 22.7535 5.72857V3.80132H25.6864C27.1627 3.80132 28.3487 4.21098 29.2111 5.0186C30.0772 5.82967 30.4982 6.90872 30.4982 8.31743C30.4982 9.72637 30.0772 10.8054 29.2111 11.6163C28.7551 12.0433 28.2087 12.359 27.5767 12.5617C27.4431 12.9516 27.2626 13.3101 27.0353 13.6377C28.1475 13.4415 29.0865 12.989 29.8376 12.2857C30.8029 11.3817 31.3292 10.1755 31.4053 8.69614C31.2227 7.89654 30.9241 7.15883 30.5096 6.48348ZM30.5096 6.48348C29.7686 5.2765 28.7299 4.34027 27.3934 3.67523C26.6648 3.3128 25.8761 3.04917 25.0272 2.88434H21.8369V5.72697H22.5931C22.6469 5.72697 22.7003 5.72743 22.7535 5.72857V3.80132H25.6864C27.1627 3.80132 28.3487 4.21098 29.2111 5.0186C30.0772 5.82967 30.4982 6.90872 30.4982 8.31743C30.4982 9.72637 30.0772 10.8054 29.2111 11.6163C28.7551 12.0433 28.2087 12.359 27.5767 12.5617C27.4431 12.9516 27.2626 13.3101 27.0353 13.6377C28.1475 13.4415 29.0865 12.989 29.8376 12.2857C30.8029 11.3817 31.3292 10.1755 31.4053 8.69614C31.2227 7.89654 30.9241 7.15883 30.5096 6.48348ZM30.5096 6.48348C29.7686 5.2765 28.7299 4.34027 27.3934 3.67523C26.6648 3.3128 25.8761 3.04917 25.0272 2.88434H21.8369V5.72697H22.5931C22.6469 5.72697 22.7003 5.72743 22.7535 5.72857V3.80132H25.6864C27.1627 3.80132 28.3487 4.21098 29.2111 5.0186C30.0772 5.82967 30.4982 6.90872 30.4982 8.31743C30.4982 9.72637 30.0772 10.8054 29.2111 11.6163C28.7551 12.0433 28.2087 12.359 27.5767 12.5617C27.4431 12.9516 27.2626 13.3101 27.0353 13.6377C28.1475 13.4415 29.0865 12.989 29.8376 12.2857C30.8029 11.3817 31.3292 10.1755 31.4053 8.69614C31.2227 7.89654 30.9241 7.15883 30.5096 6.48348ZM30.5096 6.48348C29.7686 5.2765 28.7299 4.34027 27.3934 3.67523C26.6648 3.3128 25.8761 3.04917 25.0272 2.88434H21.8369V5.72697H22.5931C22.6469 5.72697 22.7003 5.72743 22.7535 5.72857V3.80132H25.6864C27.1627 3.80132 28.3487 4.21098 29.2111 5.0186C30.0772 5.82967 30.4982 6.90872 30.4982 8.31743C30.4982 9.72637 30.0772 10.8054 29.2111 11.6163C28.7551 12.0433 28.2087 12.359 27.5767 12.5617C27.4431 12.9516 27.2626 13.3101 27.0353 13.6377C28.1475 13.4415 29.0865 12.989 29.8376 12.2857C30.8029 11.3817 31.3292 10.1755 31.4053 8.69614C31.2227 7.89654 30.9241 7.15883 30.5096 6.48348ZM30.5096 6.48348C29.7686 5.2765 28.7299 4.34027 27.3934 3.67523C26.6648 3.3128 25.8761 3.04917 25.0272 2.88434H21.8369V5.72697H22.5931C22.6469 5.72697 22.7003 5.72743 22.7535 5.72857V3.80132H25.6864C27.1627 3.80132 28.3487 4.21098 29.2111 5.0186C30.0772 5.82967 30.4982 6.90872 30.4982 8.31743C30.4982 9.72637 30.0772 10.8054 29.2111 11.6163C28.7551 12.0433 28.2087 12.359 27.5767 12.5617C27.4431 12.9516 27.2626 13.3101 27.0353 13.6377C28.1475 13.4415 29.0865 12.989 29.8376 12.2857C30.8029 11.3817 31.3292 10.1755 31.4053 8.69614C31.2227 7.89654 30.9241 7.15883 30.5096 6.48348ZM30.5096 6.48348C29.7686 5.2765 28.7299 4.34027 27.3934 3.67523C26.6648 3.3128 25.8761 3.04917 25.0272 2.88434H21.8369V5.72697H22.5931C22.6469 5.72697 22.7003 5.72743 22.7535 5.72857V3.80132H25.6864C27.1627 3.80132 28.3487 4.21098 29.2111 5.0186C30.0772 5.82967 30.4982 6.90872 30.4982 8.31743C30.4982 9.72637 30.0772 10.8054 29.2111 11.6163C28.7551 12.0433 28.2087 12.359 27.5767 12.5617C27.4431 12.9516 27.2626 13.3101 27.0353 13.6377C28.1475 13.4415 29.0865 12.989 29.8376 12.2857C30.8029 11.3817 31.3292 10.1755 31.4053 8.69614C31.2227 7.89654 30.9241 7.15883 30.5096 6.48348ZM30.5096 6.48348C29.7686 5.2765 28.7299 4.34027 27.3934 3.67523C26.6648 3.3128 25.8761 3.04917 25.0272 2.88434H21.8369V5.72697H22.5931C22.6469 5.72697 22.7003 5.72743 22.7535 5.72857V3.80132H25.6864C27.1627 3.80132 28.3487 4.21098 29.2111 5.0186C30.0772 5.82967 30.4982 6.90872 30.4982 8.31743C30.4982 9.72637 30.0772 10.8054 29.2111 11.6163C28.7551 12.0433 28.2087 12.359 27.5767 12.5617C27.4431 12.9516 27.2626 13.3101 27.0353 13.6377C28.1475 13.4415 29.0865 12.989 29.8376 12.2857C30.8029 11.3817 31.3292 10.1755 31.4053 8.69614C31.2227 7.89654 30.9241 7.15883 30.5096 6.48348ZM30.5096 6.48348C29.7686 5.2765 28.7299 4.34027 27.3934 3.67523C26.6648 3.3128 25.8761 3.04917 25.0272 2.88434H21.8369V5.72697H22.5931C22.6469 5.72697 22.7003 5.72743 22.7535 5.72857V3.80132H25.6864C27.1627 3.80132 28.3487 4.21098 29.2111 5.0186C30.0772 5.82967 30.4982 6.90872 30.4982 8.31743C30.4982 9.72637 30.0772 10.8054 29.2111 11.6163C28.7551 12.0433 28.2087 12.359 27.5767 12.5617C27.4431 12.9516 27.2626 13.3101 27.0353 13.6377C28.1475 13.4415 29.0865 12.989 29.8376 12.2857C30.8029 11.3817 31.3292 10.1755 31.4053 8.69614C31.2227 7.89654 30.9241 7.15883 30.5096 6.48348ZM30.5096 6.48348C29.7686 5.2765 28.7299 4.34027 27.3934 3.67523C26.6648 3.3128 25.8761 3.04917 25.0272 2.88434H21.8369V5.72697H22.5931C22.6469 5.72697 22.7003 5.72743 22.7535 5.72857V3.80132H25.6864C27.1627 3.80132 28.3487 4.21098 29.2111 5.0186C30.0772 5.82967 30.4982 6.90872 30.4982 8.31743C30.4982 9.72637 30.0772 10.8054 29.2111 11.6163C28.7551 12.0433 28.2087 12.359 27.5767 12.5617C27.4431 12.9516 27.2626 13.3101 27.0353 13.6377C28.1475 13.4415 29.0865 12.989 29.8376 12.2857C30.8029 11.3817 31.3292 10.1755 31.4053 8.69614C31.2227 7.89654 30.9241 7.15883 30.5096 6.48348ZM30.5096 6.48348C29.7686 5.2765 28.7299 4.34027 27.3934 3.67523C26.6648 3.3128 25.8761 3.04917 25.0272 2.88434H21.8369V5.72697H22.5931C22.6469 5.72697 22.7003 5.72743 22.7535 5.72857V3.80132H25.6864C27.1627 3.80132 28.3487 4.21098 29.2111 5.0186C30.0772 5.82967 30.4982 6.90872 30.4982 8.31743C30.4982 9.72637 30.0772 10.8054 29.2111 11.6163C28.7551 12.0433 28.2087 12.359 27.5767 12.5617C27.4431 12.9516 27.2626 13.3101 27.0353 13.6377C28.1475 13.4415 29.0865 12.989 29.8376 12.2857C30.8029 11.3817 31.3292 10.1755 31.4053 8.69614C31.2227 7.89654 30.9241 7.15883 30.5096 6.48348ZM30.5096 6.48348C29.7686 5.2765 28.7299 4.34027 27.3934 3.67523C26.6648 3.3128 25.8761 3.04917 25.0272 2.88434H21.8369V5.72697H22.5931C22.6469 5.72697 22.7003 5.72743 22.7535 5.72857V3.80132H25.6864C27.1627 3.80132 28.3487 4.21098 29.2111 5.0186C30.0772 5.82967 30.4982 6.90872 30.4982 8.31743C30.4982 9.72637 30.0772 10.8054 29.2111 11.6163C28.7551 12.0433 28.2087 12.359 27.5767 12.5617C27.4431 12.9516 27.2626 13.3101 27.0353 13.6377C28.1475 13.4415 29.0865 12.989 29.8376 12.2857C30.8029 11.3817 31.3292 10.1755 31.4053 8.69614C31.2227 7.89654 30.9241 7.15883 30.5096 6.48348ZM30.5096 6.48348C29.7686 5.2765 28.7299 4.34027 27.3934 3.67523C26.6648 3.3128 25.8761 3.04917 25.0272 2.88434H21.8369V5.72697H22.5931C22.6469 5.72697 22.7003 5.72743 22.7535 5.72857V3.80132H25.6864C27.1627 3.80132 28.3487 4.21098 29.2111 5.0186C30.0772 5.82967 30.4982 6.90872 30.4982 8.31743C30.4982 9.72637 30.0772 10.8054 29.2111 11.6163C28.7551 12.0433 28.2087 12.359 27.5767 12.5617C27.4431 12.9516 27.2626 13.3101 27.0353 13.6377C28.1475 13.4415 29.0865 12.989 29.8376 12.2857C30.8029 11.3817 31.3292 10.1755 31.4053 8.69614C31.2227 7.89654 30.9241 7.15883 30.5096 6.48348ZM33.9933 3.85931C33.2102 2.58357 32.0991 1.58131 30.6906 0.880513C29.2961 0.187049 27.6741 -0.164612 25.8697 -0.164612H18.125V1.29269L18.6424 0.752366H25.8697C27.5313 0.752366 29.0161 1.0717 30.2825 1.70167C31.5347 2.32475 32.5205 3.21216 33.2125 4.33912C33.9049 5.46769 34.2559 6.80625 34.2559 8.31743C34.2559 9.82907 33.9047 11.1674 33.2125 12.2957C32.7785 13.0027 32.229 13.6155 31.5705 14.1274L31.5671 14.1297C31.2671 14.3628 30.9454 14.5751 30.6015 14.7656C30.4972 14.8236 30.3909 14.8793 30.2828 14.9332C30.2431 14.9529 30.2035 14.9722 30.1634 14.9914C28.9233 15.5829 27.4796 15.8825 25.8697 15.8825H19.0415V2.67802H18.125V16.7995H25.8697C26.4175 16.7995 26.9487 16.7671 27.4617 16.7025C28.1615 16.6145 28.8273 16.4666 29.4565 16.2594C29.8538 16.1287 30.2367 15.9747 30.6038 15.797L30.6042 15.7968C30.6331 15.7828 30.662 15.7686 30.6906 15.7543C31.197 15.5026 31.6647 15.2117 32.0927 14.883L32.0929 14.8828C32.1007 14.8773 32.1083 14.8713 32.1161 14.8651C32.8685 14.2835 33.4968 13.5845 33.9933 12.7755C34.7756 11.5009 35.1725 10.001 35.1725 8.31743C35.1725 6.63432 34.7758 5.13437 33.9933 3.85931ZM29.2111 11.6163C28.7551 12.0433 28.2087 12.359 27.5767 12.5617C27.4431 12.9516 27.2626 13.3101 27.0353 13.6377C28.1475 13.4415 29.0865 12.989 29.8376 12.2857C30.8029 11.3817 31.3292 10.1755 31.4053 8.69614C31.2227 7.89654 30.9241 7.15883 30.5096 6.48348C29.7686 5.2765 28.7299 4.34027 27.3934 3.67523C26.6648 3.3128 25.8761 3.04917 25.0272 2.88434H21.8369V5.72697H22.5931C22.6469 5.72697 22.7003 5.72743 22.7535 5.72857V3.80132H25.6864C27.1627 3.80132 28.3487 4.21098 29.2111 5.0186C30.0772 5.82967 30.4982 6.90872 30.4982 8.31743C30.4982 9.72637 30.0772 10.8054 29.2111 11.6163ZM30.5096 6.48348C29.7686 5.2765 28.7299 4.34027 27.3934 3.67523C26.6648 3.3128 25.8761 3.04917 25.0272 2.88434H21.8369V5.72697H22.5931C22.6469 5.72697 22.7003 5.72743 22.7535 5.72857V3.80132H25.6864C27.1627 3.80132 28.3487 4.21098 29.2111 5.0186C30.0772 5.82967 30.4982 6.90872 30.4982 8.31743C30.4982 9.72637 30.0772 10.8054 29.2111 11.6163C28.7551 12.0433 28.2087 12.359 27.5767 12.5617C27.4431 12.9516 27.2626 13.3101 27.0353 13.6377C28.1475 13.4415 29.0865 12.989 29.8376 12.2857C30.8029 11.3817 31.3292 10.1755 31.4053 8.69614C31.2227 7.89654 30.9241 7.15883 30.5096 6.48348ZM30.5096 6.48348C29.7686 5.2765 28.7299 4.34027 27.3934 3.67523C26.6648 3.3128 25.8761 3.04917 25.0272 2.88434H21.8369V5.72697H22.5931C22.6469 5.72697 22.7003 5.72743 22.7535 5.72857V3.80132H25.6864C27.1627 3.80132 28.3487 4.21098 29.2111 5.0186C30.0772 5.82967 30.4982 6.90872 30.4982 8.31743C30.4982 9.72637 30.0772 10.8054 29.2111 11.6163C28.7551 12.0433 28.2087 12.359 27.5767 12.5617C27.4431 12.9516 27.2626 13.3101 27.0353 13.6377C28.1475 13.4415 29.0865 12.989 29.8376 12.2857C30.8029 11.3817 31.3292 10.1755 31.4053 8.69614C31.2227 7.89654 30.9241 7.15883 30.5096 6.48348ZM30.5096 6.48348C29.7686 5.2765 28.7299 4.34027 27.3934 3.67523C26.6648 3.3128 25.8761 3.04917 25.0272 2.88434H21.8369V5.72697H22.5931C22.6469 5.72697 22.7003 5.72743 22.7535 5.72857V3.80132H25.6864C27.1627 3.80132 28.3487 4.21098 29.2111 5.0186C30.0772 5.82967 30.4982 6.90872 30.4982 8.31743C30.4982 9.72637 30.0772 10.8054 29.2111 11.6163C28.7551 12.0433 28.2087 12.359 27.5767 12.5617C27.4431 12.9516 27.2626 13.3101 27.0353 13.6377C28.1475 13.4415 29.0865 12.989 29.8376 12.2857C30.8029 11.3817 31.3292 10.1755 31.4053 8.69614C31.2227 7.89654 30.9241 7.15883 30.5096 6.48348ZM30.5096 6.48348C29.7686 5.2765 28.7299 4.34027 27.3934 3.67523C26.6648 3.3128 25.8761 3.04917 25.0272 2.88434H21.8369V5.72697H22.5931C22.6469 5.72697 22.7003 5.72743 22.7535 5.72857V3.80132H25.6864C27.1627 3.80132 28.3487 4.21098 29.2111 5.0186C30.0772 5.82967 30.4982 6.90872 30.4982 8.31743C30.4982 9.72637 30.0772 10.8054 29.2111 11.6163C28.7551 12.0433 28.2087 12.359 27.5767 12.5617C27.4431 12.9516 27.2626 13.3101 27.0353 13.6377C28.1475 13.4415 29.0865 12.989 29.8376 12.2857C30.8029 11.3817 31.3292 10.1755 31.4053 8.69614C31.2227 7.89654 30.9241 7.15883 30.5096 6.48348ZM30.5096 6.48348C29.7686 5.2765 28.7299 4.34027 27.3934 3.67523C26.6648 3.3128 25.8761 3.04917 25.0272 2.88434H21.8369V5.72697H22.5931C22.6469 5.72697 22.7003 5.72743 22.7535 5.72857V3.80132H25.6864C27.1627 3.80132 28.3487 4.21098 29.2111 5.0186C30.0772 5.82967 30.4982 6.90872 30.4982 8.31743C30.4982 9.72637 30.0772 10.8054 29.2111 11.6163C28.7551 12.0433 28.2087 12.359 27.5767 12.5617C27.4431 12.9516 27.2626 13.3101 27.0353 13.6377C28.1475 13.4415 29.0865 12.989 29.8376 12.2857C30.8029 11.3817 31.3292 10.1755 31.4053 8.69614C31.2227 7.89654 30.9241 7.15883 30.5096 6.48348ZM30.5096 6.48348C29.7686 5.2765 28.7299 4.34027 27.3934 3.67523C26.6648 3.3128 25.8761 3.04917 25.0272 2.88434H21.8369V5.72697H22.5931C22.6469 5.72697 22.7003 5.72743 22.7535 5.72857V3.80132H25.6864C27.1627 3.80132 28.3487 4.21098 29.2111 5.0186C30.0772 5.82967 30.4982 6.90872 30.4982 8.31743C30.4982 9.72637 30.0772 10.8054 29.2111 11.6163C28.7551 12.0433 28.2087 12.359 27.5767 12.5617C27.4431 12.9516 27.2626 13.3101 27.0353 13.6377C28.1475 13.4415 29.0865 12.989 29.8376 12.2857C30.8029 11.3817 31.3292 10.1755 31.4053 8.69614C31.2227 7.89654 30.9241 7.15883 30.5096 6.48348ZM30.5096 6.48348C29.7686 5.2765 28.7299 4.34027 27.3934 3.67523C26.6648 3.3128 25.8761 3.04917 25.0272 2.88434H21.8369V5.72697H22.5931C22.6469 5.72697 22.7003 5.72743 22.7535 5.72857V3.80132H25.6864C27.1627 3.80132 28.3487 4.21098 29.2111 5.0186C30.0772 5.82967 30.4982 6.90872 30.4982 8.31743C30.4982 9.72637 30.0772 10.8054 29.2111 11.6163C28.7551 12.0433 28.2087 12.359 27.5767 12.5617C27.4431 12.9516 27.2626 13.3101 27.0353 13.6377C28.1475 13.4415 29.0865 12.989 29.8376 12.2857C30.8029 11.3817 31.3292 10.1755 31.4053 8.69614C31.2227 7.89654 30.9241 7.15883 30.5096 6.48348ZM30.5096 6.48348C29.7686 5.2765 28.7299 4.34027 27.3934 3.67523C26.6648 3.3128 25.8761 3.04917 25.0272 2.88434H21.8369V5.72697H22.5931C22.6469 5.72697 22.7003 5.72743 22.7535 5.72857V3.80132H25.6864C27.1627 3.80132 28.3487 4.21098 29.2111 5.0186C30.0772 5.82967 30.4982 6.90872 30.4982 8.31743C30.4982 9.72637 30.0772 10.8054 29.2111 11.6163C28.7551 12.0433 28.2087 12.359 27.5767 12.5617C27.4431 12.9516 27.2626 13.3101 27.0353 13.6377C28.1475 13.4415 29.0865 12.989 29.8376 12.2857C30.8029 11.3817 31.3292 10.1755 31.4053 8.69614C31.2227 7.89654 30.9241 7.15883 30.5096 6.48348ZM30.5096 6.48348C29.7686 5.2765 28.7299 4.34027 27.3934 3.67523C26.6648 3.3128 25.8761 3.04917 25.0272 2.88434H21.8369V5.72697H22.5931C22.6469 5.72697 22.7003 5.72743 22.7535 5.72857V3.80132H25.6864C27.1627 3.80132 28.3487 4.21098 29.2111 5.0186C30.0772 5.82967 30.4982 6.90872 30.4982 8.31743C30.4982 9.72637 30.0772 10.8054 29.2111 11.6163C28.7551 12.0433 28.2087 12.359 27.5767 12.5617C27.4431 12.9516 27.2626 13.3101 27.0353 13.6377C28.1475 13.4415 29.0865 12.989 29.8376 12.2857C30.8029 11.3817 31.3292 10.1755 31.4053 8.69614C31.2227 7.89654 30.9241 7.15883 30.5096 6.48348ZM30.5096 6.48348C29.7686 5.2765 28.7299 4.34027 27.3934 3.67523C26.6648 3.3128 25.8761 3.04917 25.0272 2.88434H21.8369V5.72697H22.5931C22.6469 5.72697 22.7003 5.72743 22.7535 5.72857V3.80132H25.6864C27.1627 3.80132 28.3487 4.21098 29.2111 5.0186C30.0772 5.82967 30.4982 6.90872 30.4982 8.31743C30.4982 9.72637 30.0772 10.8054 29.2111 11.6163C28.7551 12.0433 28.2087 12.359 27.5767 12.5617C27.4431 12.9516 27.2626 13.3101 27.0353 13.6377C28.1475 13.4415 29.0865 12.989 29.8376 12.2857C30.8029 11.3817 31.3292 10.1755 31.4053 8.69614C31.2227 7.89654 30.9241 7.15883 30.5096 6.48348ZM30.5096 6.48348C29.7686 5.2765 28.7299 4.34027 27.3934 3.67523C26.6648 3.3128 25.8761 3.04917 25.0272 2.88434H21.8369V5.72697H22.5931C22.6469 5.72697 22.7003 5.72743 22.7535 5.72857V3.80132H25.6864C27.1627 3.80132 28.3487 4.21098 29.2111 5.0186C30.0772 5.82967 30.4982 6.90872 30.4982 8.31743C30.4982 9.72637 30.0772 10.8054 29.2111 11.6163C28.7551 12.0433 28.2087 12.359 27.5767 12.5617C27.4431 12.9516 27.2626 13.3101 27.0353 13.6377C28.1475 13.4415 29.0865 12.989 29.8376 12.2857C30.8029 11.3817 31.3292 10.1755 31.4053 8.69614C31.2227 7.89654 30.9241 7.15883 30.5096 6.48348ZM30.5096 6.48348C29.7686 5.2765 28.7299 4.34027 27.3934 3.67523C26.6648 3.3128 25.8761 3.04917 25.0272 2.88434H21.8369V5.72697H22.5931C22.6469 5.72697 22.7003 5.72743 22.7535 5.72857V3.80132H25.6864C27.1627 3.80132 28.3487 4.21098 29.2111 5.0186C30.0772 5.82967 30.4982 6.90872 30.4982 8.31743C30.4982 9.72637 30.0772 10.8054 29.2111 11.6163C28.7551 12.0433 28.2087 12.359 27.5767 12.5617C27.4431 12.9516 27.2626 13.3101 27.0353 13.6377C28.1475 13.4415 29.0865 12.989 29.8376 12.2857C30.8029 11.3817 31.3292 10.1755 31.4053 8.69614C31.2227 7.89654 30.9241 7.15883 30.5096 6.48348ZM30.5096 6.48348C29.7686 5.2765 28.7299 4.34027 27.3934 3.67523C26.6648 3.3128 25.8761 3.04917 25.0272 2.88434H21.8369V5.72697H22.5931C22.6469 5.72697 22.7003 5.72743 22.7535 5.72857V3.80132H25.6864C27.1627 3.80132 28.3487 4.21098 29.2111 5.0186C30.0772 5.82967 30.4982 6.90872 30.4982 8.31743C30.4982 9.72637 30.0772 10.8054 29.2111 11.6163C28.7551 12.0433 28.2087 12.359 27.5767 12.5617C27.4431 12.9516 27.2626 13.3101 27.0353 13.6377C28.1475 13.4415 29.0865 12.989 29.8376 12.2857C30.8029 11.3817 31.3292 10.1755 31.4053 8.69614C31.2227 7.89654 30.9241 7.15883 30.5096 6.48348ZM30.5096 6.48348C29.7686 5.2765 28.7299 4.34027 27.3934 3.67523C26.6648 3.3128 25.8761 3.04917 25.0272 2.88434H21.8369V5.72697H22.5931C22.6469 5.72697 22.7003 5.72743 22.7535 5.72857V3.80132H25.6864C27.1627 3.80132 28.3487 4.21098 29.2111 5.0186C30.0772 5.82967 30.4982 6.90872 30.4982 8.31743C30.4982 9.72637 30.0772 10.8054 29.2111 11.6163C28.7551 12.0433 28.2087 12.359 27.5767 12.5617C27.4431 12.9516 27.2626 13.3101 27.0353 13.6377C28.1475 13.4415 29.0865 12.989 29.8376 12.2857C30.8029 11.3817 31.3292 10.1755 31.4053 8.69614C31.2227 7.89654 30.9241 7.15883 30.5096 6.48348ZM30.5096 6.48348C29.7686 5.2765 28.7299 4.34027 27.3934 3.67523C26.6648 3.3128 25.8761 3.04917 25.0272 2.88434H21.8369V5.72697H22.5931C22.6469 5.72697 22.7003 5.72743 22.7535 5.72857V3.80132H25.6864C27.1627 3.80132 28.3487 4.21098 29.2111 5.0186C30.0772 5.82967 30.4982 6.90872 30.4982 8.31743C30.4982 9.72637 30.0772 10.8054 29.2111 11.6163C28.7551 12.0433 28.2087 12.359 27.5767 12.5617C27.4431 12.9516 27.2626 13.3101 27.0353 13.6377C28.1475 13.4415 29.0865 12.989 29.8376 12.2857C30.8029 11.3817 31.3292 10.1755 31.4053 8.69614C31.2227 7.89654 30.9241 7.15883 30.5096 6.48348ZM30.5096 6.48348C29.7686 5.2765 28.7299 4.34027 27.3934 3.67523C26.6648 3.3128 25.8761 3.04917 25.0272 2.88434H21.8369V5.72697H22.5931C22.6469 5.72697 22.7003 5.72743 22.7535 5.72857V3.80132H25.6864C27.1627 3.80132 28.3487 4.21098 29.2111 5.0186C30.0772 5.82967 30.4982 6.90872 30.4982 8.31743C30.4982 9.72637 30.0772 10.8054 29.2111 11.6163C28.7551 12.0433 28.2087 12.359 27.5767 12.5617C27.4431 12.9516 27.2626 13.3101 27.0353 13.6377C28.1475 13.4415 29.0865 12.989 29.8376 12.2857C30.8029 11.3817 31.3292 10.1755 31.4053 8.69614C31.2227 7.89654 30.9241 7.15883 30.5096 6.48348ZM30.5096 6.48348C29.7686 5.2765 28.7299 4.34027 27.3934 3.67523C26.6648 3.3128 25.8761 3.04917 25.0272 2.88434H21.8369V5.72697H22.5931C22.6469 5.72697 22.7003 5.72743 22.7535 5.72857V3.80132H25.6864C27.1627 3.80132 28.3487 4.21098 29.2111 5.0186C30.0772 5.82967 30.4982 6.90872 30.4982 8.31743C30.4982 9.72637 30.0772 10.8054 29.2111 11.6163C28.7551 12.0433 28.2087 12.359 27.5767 12.5617C27.4431 12.9516 27.2626 13.3101 27.0353 13.6377C28.1475 13.4415 29.0865 12.989 29.8376 12.2857C30.8029 11.3817 31.3292 10.1755 31.4053 8.69614C31.2227 7.89654 30.9241 7.15883 30.5096 6.48348ZM30.5096 6.48348C29.7686 5.2765 28.7299 4.34027 27.3934 3.67523C26.6648 3.3128 25.8761 3.04917 25.0272 2.88434H21.8369V5.72697H22.5931C22.6469 5.72697 22.7003 5.72743 22.7535 5.72857V3.80132H25.6864C27.1627 3.80132 28.3487 4.21098 29.2111 5.0186C30.0772 5.82967 30.4982 6.90872 30.4982 8.31743C30.4982 9.72637 30.0772 10.8054 29.2111 11.6163C28.7551 12.0433 28.2087 12.359 27.5767 12.5617C27.4431 12.9516 27.2626 13.3101 27.0353 13.6377C28.1475 13.4415 29.0865 12.989 29.8376 12.2857C30.8029 11.3817 31.3292 10.1755 31.4053 8.69614C31.2227 7.89654 30.9241 7.15883 30.5096 6.48348Z" fill="#2D2D2D"/>
<path d="M12.4791 12.1461C12.332 12.6314 12.0265 13.0371 11.5749 13.3404C10.9663 13.7494 10.141 13.9569 9.12228 13.9569H9.11243C9.08287 13.9569 9.05331 13.9566 9.02398 13.9564C9.02673 13.9115 9.02811 13.8659 9.02811 13.8193C9.02811 13.5254 8.97816 13.2643 8.8778 13.0362C8.95593 13.0387 9.03453 13.0399 9.11289 13.0399H9.12182C9.95587 13.0399 10.6091 12.8849 11.0642 12.5791C11.473 12.3047 11.6634 11.9413 11.6634 11.4352C11.6634 11.0214 11.6631 9.92216 9.11999 9.92216H6.96614V6.83745L9.70749 3.73256H3.4375V2.67804H4.35403V2.81559H11.2479L11.4775 3.11315L7.88268 7.1843V9.00518H8.59047L8.40945 9.2115C9.81472 9.44121 10.8916 9.96457 11.6402 10.7818C12.0126 11.1887 12.2919 11.6433 12.4791 12.1461Z" fill="#2D2D2D"/>
<path d="M2.05262 2.67804L1.48621 3.28714L0.832031 2.67804H2.05262Z" fill="#2D2D2D"/>
<path d="M14.4009 15.5027C14.3851 15.5157 14.3693 15.5286 14.3532 15.5412C13.9866 15.8321 13.5685 16.0895 13.1008 16.3119L13.1003 16.3121C13.0951 16.3149 13.0898 16.3174 13.0843 16.3199C12.6771 16.5127 12.2335 16.6688 11.7558 16.7878C11.2632 16.9109 10.7339 16.9946 10.1706 17.0384H10.1704C9.86063 17.0624 9.54076 17.0746 9.21081 17.0746H9.20394C8.03948 17.0746 6.87938 16.9189 5.75595 16.6113C4.61601 16.3004 3.62982 15.8486 2.82511 15.2688L2.69336 15.1739C2.96946 15.2986 3.25909 15.4089 3.56246 15.5043C4.35938 15.7557 5.19022 15.8834 6.02564 15.8825C6.20528 15.8825 6.37758 15.8761 6.54256 15.8626C7.41556 16.0586 8.30849 16.1576 9.20417 16.1576H9.21058C10.4603 16.1576 11.5409 15.9728 12.4285 15.6074C12.4214 15.6258 12.4141 15.6441 12.4065 15.6624L12.6625 15.505H12.6627C12.6725 15.5006 12.6824 15.4958 12.6923 15.4912C13.1198 15.289 13.4972 15.0549 13.823 14.7909L13.9248 14.7283L14.4009 15.5027Z" fill="#2D2D2D"/>
<path d="M15.5842 2.8002L15.4941 2.714L15.5285 2.67801L15.584 2.62024V2.67801L15.5842 2.8002Z" fill="#2D2D2D"/>
<path d="M16.3134 11.4338C16.3196 12.4342 16.0416 13.4108 15.51 14.2581C15.5029 14.2695 15.4958 14.281 15.4883 14.2922V8.61383C16.0361 9.41435 16.3132 10.36 16.3134 11.4338Z" fill="#2D2D2D"/>
<path d="M29.2093 5.01862C28.3469 4.211 27.1609 3.80134 25.6846 3.80134H22.7517V5.72859C24.2807 5.75748 25.5068 6.20405 26.4293 7.06807C27.3841 7.96212 27.8614 9.17345 27.8614 10.7016C27.8614 11.3852 27.7658 12.0053 27.5749 12.5617C28.2069 12.359 28.7534 12.0434 29.2093 11.6163C30.0755 10.8054 30.4964 9.72638 30.4964 8.31745C30.4964 6.90874 30.0755 5.82969 29.2093 5.01862ZM29.2093 5.01862C28.3469 4.211 27.1609 3.80134 25.6846 3.80134H22.7517V5.72859C24.2807 5.75748 25.5068 6.20405 26.4293 7.06807C27.3841 7.96212 27.8614 9.17345 27.8614 10.7016C27.8614 11.3852 27.7658 12.0053 27.5749 12.5617C28.2069 12.359 28.7534 12.0434 29.2093 11.6163C30.0755 10.8054 30.4964 9.72638 30.4964 8.31745C30.4964 6.90874 30.0755 5.82969 29.2093 5.01862ZM31.4035 8.69616C31.2209 7.89656 30.9223 7.15885 30.5078 6.48349C29.7668 5.27652 28.7282 4.34029 27.3916 3.67525C26.663 3.31282 25.8743 3.04919 25.0254 2.88436C24.3169 2.74681 23.5667 2.67804 22.7746 2.67804H18.1232V16.7995H25.8679C26.4158 16.7995 26.9469 16.7672 27.4599 16.7025L27.915 17.4446C27.9422 17.4288 27.9695 17.4127 27.9963 17.3964L28.112 17.3254C28.6086 17.0147 29.0563 16.6594 29.4547 16.2594C29.8553 15.858 30.2063 15.4112 30.5078 14.9197C30.5392 14.8688 30.5697 14.8172 30.5997 14.7656C30.6126 14.7436 30.6252 14.7216 30.6375 14.6994V14.6992C31.2919 13.5426 31.6191 12.21 31.6191 10.7016C31.6191 9.9946 31.5472 9.32612 31.4035 8.69616ZM19.2001 5.72699H22.5913C22.6452 5.72699 22.6985 5.72745 22.7517 5.72859C24.2807 5.75748 25.5068 6.20405 26.4293 7.06807C27.3841 7.96212 27.8614 9.17345 27.8614 10.7016C27.8614 11.3852 27.7658 12.0053 27.5749 12.5617C27.4414 12.9516 27.2608 13.3102 27.0335 13.6378C26.8596 13.8885 26.6582 14.121 26.4293 14.3351C25.4745 15.2292 24.1952 15.6762 22.5913 15.6762H19.2001V5.72699ZM29.2093 5.01862C28.3469 4.211 27.1609 3.80134 25.6846 3.80134H22.7517V5.72859C24.2807 5.75748 25.5068 6.20405 26.4293 7.06807C27.3841 7.96212 27.8614 9.17345 27.8614 10.7016C27.8614 11.3852 27.7658 12.0053 27.5749 12.5617C28.2069 12.359 28.7534 12.0434 29.2093 11.6163C30.0755 10.8054 30.4964 9.72638 30.4964 8.31745C30.4964 6.90874 30.0755 5.82969 29.2093 5.01862ZM15.4882 8.61386V14.2922C15.4958 14.281 15.5029 14.2695 15.51 14.2581C16.0415 13.4108 16.3195 12.4342 16.3133 11.4338C16.3131 10.36 16.036 9.41438 15.4882 8.61386ZM15.5831 2.67804H15.5276L15.4932 2.71403L15.5833 2.80023L15.5831 2.67804ZM1.44235 14.4383L1.43273 14.4573L1.44762 14.4422C1.44579 14.4408 1.44419 14.4396 1.44235 14.4383ZM12.4776 12.1461C12.2904 11.6433 12.0111 11.1887 11.6388 10.7818C10.8902 9.96457 9.81326 9.4412 8.40799 9.2115L8.589 9.00518H7.88121V7.18429L11.4761 3.11315L11.2465 2.81559L11.2128 2.77203L11.3345 2.67804H0.800781V5.65822H7.62894L4.32943 9.3949V11.4485L4.37434 11.36L4.81083 11.6873C4.88416 11.7424 4.95908 11.7958 5.03561 11.8478H6.02501C7.57853 11.8478 8.5292 12.2439 8.87634 13.0362C8.9767 13.2643 9.02665 13.5254 9.02665 13.8193C9.02665 13.8658 9.02527 13.9115 9.02252 13.9564C8.98746 14.5478 8.72167 15.0105 8.22468 15.3438C7.793 15.634 7.23208 15.8069 6.54193 15.8626C6.37696 15.8761 6.20465 15.8825 6.02501 15.8825C5.18959 15.8834 4.35875 15.7557 3.56183 15.5043C3.25846 15.4089 2.96884 15.2986 2.69273 15.1739L2.82448 15.2688C3.6292 15.8486 4.61538 16.3004 5.75532 16.6113C6.87876 16.9189 8.03886 17.0746 9.20331 17.0746H9.21018C9.54013 17.0746 9.86 17.0624 10.1698 17.0384L9.96082 17.167L10.4372 17.9418C10.9692 17.6142 11.4087 17.2295 11.7552 16.7878C11.8539 16.6626 11.9449 16.5326 12.0283 16.3983C12.1758 16.1633 12.3021 15.9171 12.4059 15.6624C12.4135 15.6441 12.4208 15.6258 12.4279 15.6074C12.6513 15.0407 12.7656 14.4339 12.7615 13.8193C12.7615 13.2123 12.6669 12.6545 12.4776 12.1461Z" fill="#2D2D2D"/>
<path d="M10.4384 17.9418C10.2372 18.0661 10.023 18.1818 9.79542 18.2896C8.7948 18.7634 7.56894 19.0002 6.11784 19.0002C4.99166 19.0009 3.87051 18.8505 2.78396 18.5532C1.69169 18.2552 0.763699 17.8311 0 17.2809L1.43185 14.4612L1.43391 14.4573L1.44881 14.4422L4.23116 11.6442L4.33061 11.4485L4.37552 11.36L4.81202 11.6873C4.88534 11.7424 4.96027 11.7958 5.0368 11.8478C5.55234 12.1976 6.14236 12.478 6.79401 12.6827C7.47041 12.8962 8.17019 13.0147 8.87752 13.0362C8.97788 13.2643 9.02783 13.5254 9.02783 13.8193C9.02783 13.8659 9.02645 13.9115 9.0237 13.9564C8.17316 13.9477 7.33087 13.8136 6.5186 13.5575C5.85847 13.3498 5.25172 13.072 4.70845 12.7286L4.54187 12.6323L2.8818 14.3014V14.3016L2.23908 14.9479C2.38619 15.0279 2.53787 15.1033 2.69391 15.1739L2.82566 15.2688C3.63038 15.8486 4.61657 16.3004 5.7565 16.6113C6.87994 16.9189 8.04004 17.0746 9.20449 17.0746H9.21136C9.54132 17.0746 9.86119 17.0624 10.171 17.0384L9.962 17.167L10.4384 17.9418Z" fill="#2D2D2D"/>
<path d="M1.43533 14.4573L1.43278 14.462L1.43164 14.4609L1.43533 14.4573Z" fill="#2D2D2D"/>
<path d="M27.9166 17.4446C27.7475 17.5441 27.5732 17.6385 27.3933 17.7279C26.0567 18.3927 24.5177 18.7251 22.7763 18.7251H15.4898V14.2922C15.4974 14.281 15.5045 14.2695 15.5116 14.2581C16.0432 13.4108 16.3211 12.4342 16.3149 11.4338C16.3147 10.36 16.0377 9.41436 15.4898 8.61384V4.3327L12.9504 6.87365C13.8128 7.07011 14.3863 7.35552 15.0685 8.08429L15.0721 8.08818C15.2254 8.25576 15.3647 8.4309 15.4898 8.61384V14.2922C15.205 14.7425 14.8412 15.1471 14.4019 15.5026L13.9258 14.7282L13.824 14.7908C14.1957 14.4898 14.5 14.1494 14.7344 13.7723C15.1743 13.0708 15.4037 12.2643 15.3984 11.4381V11.4352C15.3984 10.3378 15.0712 9.44623 14.3978 8.70944C13.728 7.99442 13.2711 7.83372 11.9383 7.6164L11.0557 7.47243L14.6698 3.85656L14.6663 1.26289L12.0299 3.30042V5.08508L8.59065 9.00516H7.88286V7.18427L11.4777 3.11312L11.2481 2.81556L11.2144 2.77201L11.3361 2.67802L13.8277 0.752366H3.84394L3.43768 1.18931L2.05372 2.67802H0.833133L0.816406 2.66243L3.42989 -0.148565L3.43768 -0.141229V-0.164612H15.581L15.5847 2.62025L15.5292 2.67802L15.4949 2.71401L15.5849 2.80021L15.5847 2.67802H18.1249V16.7995H25.8695C26.4174 16.7995 26.9485 16.7671 27.4616 16.7025L27.9166 17.4446Z" fill="#2D2D2D"/>
<path d="M18.8484 0.536174L18.6415 0.752352L18.1241 1.29268L16.7979 2.678H15.584L15.5842 2.80019L15.4941 2.714L15.5285 2.678L15.584 2.62023L18.1241 -0.0330391L18.1864 -0.0981445L18.6133 0.310827L18.8484 0.536174Z" fill="#2D2D2D"/>
<path d="M14.4045 15.5093L14.3527 15.5412L13.1003 16.3119L13.0998 16.3121L10.4412 17.9482L10.4373 17.9418L9.96094 17.167L10.1699 17.0384H10.1701L12.406 15.6624L12.662 15.505H12.6622L13.8225 14.7909L13.9242 14.7283L14.4004 15.5027L14.4045 15.5093Z" fill="#2D2D2D"/>
<path d="M32.1169 14.8677L32.0921 14.8828L32.0919 14.883L30.6034 15.7968L30.603 15.797L28.113 17.3254L27.9973 17.3965L27.9168 17.446L27.9159 17.4446L27.4609 16.7025L27.4375 16.6645L30.1626 14.9915L30.6385 14.6994C30.6261 14.7216 30.6135 14.7436 30.6007 14.7656C30.9446 14.5751 31.2663 14.3629 31.5662 14.1297L31.5697 14.1274L31.6375 14.0859L32.1153 14.8651L32.1169 14.8677Z" fill="#2D2D2D"/>
<path d="M19.659 0.310852H17.9863V0.752376H19.659V0.310852Z" fill="#2D2D2D"/>
</g>
<defs>
<clipPath id="clip0_36_68">
<rect width="35" height="19" fill="white"/>
</clipPath>
</defs>
</svg>
