<svg width="35" height="19" fill="none" xmlns="http://www.w3.org/2000/svg"><g clip-path="url(#a)" fill="#fff"><path d="M30.51 6.483c-.741-1.206-1.78-2.143-3.117-2.808a9.239 9.239 0 0 0-2.366-.79h-3.19v2.842h.756c.054 0 .107 0 .16.002V3.8h2.933c1.477 0 2.663.41 3.525 1.218.866.81 1.287 1.89 1.287 3.298 0 1.41-.42 2.488-1.287 3.3a4.26 4.26 0 0 1-1.634.945c-.134.39-.314.748-.542 1.076 1.113-.197 2.052-.649 2.803-1.352.965-.904 1.491-2.11 1.567-3.59a7.31 7.31 0 0 0-.895-2.213Zm0 0c-.741-1.206-1.78-2.143-3.117-2.808a9.239 9.239 0 0 0-2.366-.79h-3.19v2.842h.756c.054 0 .107 0 .16.002V3.8h2.933c1.477 0 2.663.41 3.525 1.218.866.81 1.287 1.89 1.287 3.298 0 1.41-.42 2.488-1.287 3.3a4.26 4.26 0 0 1-1.634.945c-.134.39-.314.748-.542 1.076 1.113-.197 2.052-.649 2.803-1.352.965-.904 1.491-2.11 1.567-3.59a7.31 7.31 0 0 0-.895-2.213Zm0 0c-.741-1.206-1.78-2.143-3.117-2.808a9.239 9.239 0 0 0-2.366-.79h-3.19v2.842h.756c.054 0 .107 0 .16.002V3.8h2.933c1.477 0 2.663.41 3.525 1.218.866.81 1.287 1.89 1.287 3.298 0 1.41-.42 2.488-1.287 3.3a4.26 4.26 0 0 1-1.634.945c-.134.39-.314.748-.542 1.076 1.113-.197 2.052-.649 2.803-1.352.965-.904 1.491-2.11 1.567-3.59a7.31 7.31 0 0 0-.895-2.213Zm0 0c-.741-1.206-1.78-2.143-3.117-2.808a9.239 9.239 0 0 0-2.366-.79h-3.19v2.842h.756c.054 0 .107 0 .16.002V3.8h2.933c1.477 0 2.663.41 3.525 1.218.866.81 1.287 1.89 1.287 3.298 0 1.41-.42 2.488-1.287 3.3a4.26 4.26 0 0 1-1.634.945c-.134.39-.314.748-.542 1.076 1.113-.197 2.052-.649 2.803-1.352.965-.904 1.491-2.11 1.567-3.59a7.31 7.31 0 0 0-.895-2.213Zm0 0c-.741-1.206-1.78-2.143-3.117-2.808a9.239 9.239 0 0 0-2.366-.79h-3.19v2.842h.756c.054 0 .107 0 .16.002V3.8h2.933c1.477 0 2.663.41 3.525 1.218.866.81 1.287 1.89 1.287 3.298 0 1.41-.42 2.488-1.287 3.3a4.26 4.26 0 0 1-1.634.945c-.134.39-.314.748-.542 1.076 1.113-.197 2.052-.649 2.803-1.352.965-.904 1.491-2.11 1.567-3.59a7.31 7.31 0 0 0-.895-2.213Zm0 0c-.741-1.206-1.78-2.143-3.117-2.808a9.239 9.239 0 0 0-2.366-.79h-3.19v2.842h.756c.054 0 .107 0 .16.002V3.8h2.933c1.477 0 2.663.41 3.525 1.218.866.81 1.287 1.89 1.287 3.298 0 1.41-.42 2.488-1.287 3.3a4.26 4.26 0 0 1-1.634.945c-.134.39-.314.748-.542 1.076 1.113-.197 2.052-.649 2.803-1.352.965-.904 1.491-2.11 1.567-3.59a7.31 7.31 0 0 0-.895-2.213Zm0 0c-.741-1.206-1.78-2.143-3.117-2.808a9.239 9.239 0 0 0-2.366-.79h-3.19v2.842h.756c.054 0 .107 0 .16.002V3.8h2.933c1.477 0 2.663.41 3.525 1.218.866.81 1.287 1.89 1.287 3.298 0 1.41-.42 2.488-1.287 3.3a4.26 4.26 0 0 1-1.634.945c-.134.39-.314.748-.542 1.076 1.113-.197 2.052-.649 2.803-1.352.965-.904 1.491-2.11 1.567-3.59a7.31 7.31 0 0 0-.895-2.213Zm0 0c-.741-1.206-1.78-2.143-3.117-2.808a9.239 9.239 0 0 0-2.366-.79h-3.19v2.842h.756c.054 0 .107 0 .16.002V3.8h2.933c1.477 0 2.663.41 3.525 1.218.866.81 1.287 1.89 1.287 3.298 0 1.41-.42 2.488-1.287 3.3a4.26 4.26 0 0 1-1.634.945c-.134.39-.314.748-.542 1.076 1.113-.197 2.052-.649 2.803-1.352.965-.904 1.491-2.11 1.567-3.59a7.31 7.31 0 0 0-.895-2.213Zm0 0c-.741-1.206-1.78-2.143-3.117-2.808a9.239 9.239 0 0 0-2.366-.79h-3.19v2.842h.756c.054 0 .107 0 .16.002V3.8h2.933c1.477 0 2.663.41 3.525 1.218.866.81 1.287 1.89 1.287 3.298 0 1.41-.42 2.488-1.287 3.3a4.26 4.26 0 0 1-1.634.945c-.134.39-.314.748-.542 1.076 1.113-.197 2.052-.649 2.803-1.352.965-.904 1.491-2.11 1.567-3.59a7.31 7.31 0 0 0-.895-2.213Zm0 0c-.741-1.206-1.78-2.143-3.117-2.808a9.239 9.239 0 0 0-2.366-.79h-3.19v2.842h.756c.054 0 .107 0 .16.002V3.8h2.933c1.477 0 2.663.41 3.525 1.218.866.81 1.287 1.89 1.287 3.298 0 1.41-.42 2.488-1.287 3.3a4.26 4.26 0 0 1-1.634.945c-.134.39-.314.748-.542 1.076 1.113-.197 2.052-.649 2.803-1.352.965-.904 1.491-2.11 1.567-3.59a7.31 7.31 0 0 0-.895-2.213Zm0 0c-.741-1.206-1.78-2.143-3.117-2.808a9.239 9.239 0 0 0-2.366-.79h-3.19v2.842h.756c.054 0 .107 0 .16.002V3.8h2.933c1.477 0 2.663.41 3.525 1.218.866.81 1.287 1.89 1.287 3.298 0 1.41-.42 2.488-1.287 3.3a4.26 4.26 0 0 1-1.634.945c-.134.39-.314.748-.542 1.076 1.113-.197 2.052-.649 2.803-1.352.965-.904 1.491-2.11 1.567-3.59a7.31 7.31 0 0 0-.895-2.213Zm0 0c-.741-1.206-1.78-2.143-3.117-2.808a9.239 9.239 0 0 0-2.366-.79h-3.19v2.842h.756c.054 0 .107 0 .16.002V3.8h2.933c1.477 0 2.663.41 3.525 1.218.866.81 1.287 1.89 1.287 3.298 0 1.41-.42 2.488-1.287 3.3a4.26 4.26 0 0 1-1.634.945c-.134.39-.314.748-.542 1.076 1.113-.197 2.052-.649 2.803-1.352.965-.904 1.491-2.11 1.567-3.59a7.31 7.31 0 0 0-.895-2.213Zm0 0c-.741-1.206-1.78-2.143-3.117-2.808a9.239 9.239 0 0 0-2.366-.79h-3.19v2.842h.756c.054 0 .107 0 .16.002V3.8h2.933c1.477 0 2.663.41 3.525 1.218.866.81 1.287 1.89 1.287 3.298 0 1.41-.42 2.488-1.287 3.3a4.26 4.26 0 0 1-1.634.945c-.134.39-.314.748-.542 1.076 1.113-.197 2.052-.649 2.803-1.352.965-.904 1.491-2.11 1.567-3.59a7.31 7.31 0 0 0-.895-2.213Zm0 0c-.741-1.206-1.78-2.143-3.117-2.808a9.239 9.239 0 0 0-2.366-.79h-3.19v2.842h.756c.054 0 .107 0 .16.002V3.8h2.933c1.477 0 2.663.41 3.525 1.218.866.81 1.287 1.89 1.287 3.298 0 1.41-.42 2.488-1.287 3.3a4.26 4.26 0 0 1-1.634.945c-.134.39-.314.748-.542 1.076 1.113-.197 2.052-.649 2.803-1.352.965-.904 1.491-2.11 1.567-3.59a7.31 7.31 0 0 0-.895-2.213Zm0 0c-.741-1.206-1.78-2.143-3.117-2.808a9.239 9.239 0 0 0-2.366-.79h-3.19v2.842h.756c.054 0 .107 0 .16.002V3.8h2.933c1.477 0 2.663.41 3.525 1.218.866.81 1.287 1.89 1.287 3.298 0 1.41-.42 2.488-1.287 3.3a4.26 4.26 0 0 1-1.634.945c-.134.39-.314.748-.542 1.076 1.113-.197 2.052-.649 2.803-1.352.965-.904 1.491-2.11 1.567-3.59a7.31 7.31 0 0 0-.895-2.213Zm0 0c-.741-1.206-1.78-2.143-3.117-2.808a9.239 9.239 0 0 0-2.366-.79h-3.19v2.842h.756c.054 0 .107 0 .16.002V3.8h2.933c1.477 0 2.663.41 3.525 1.218.866.81 1.287 1.89 1.287 3.298 0 1.41-.42 2.488-1.287 3.3a4.26 4.26 0 0 1-1.634.945c-.134.39-.314.748-.542 1.076 1.113-.197 2.052-.649 2.803-1.352.965-.904 1.491-2.11 1.567-3.59a7.31 7.31 0 0 0-.895-2.213Zm0 0c-.741-1.206-1.78-2.143-3.117-2.808a9.239 9.239 0 0 0-2.366-.79h-3.19v2.842h.756c.054 0 .107 0 .16.002V3.8h2.933c1.477 0 2.663.41 3.525 1.218.866.81 1.287 1.89 1.287 3.298 0 1.41-.42 2.488-1.287 3.3a4.26 4.26 0 0 1-1.634.945c-.134.39-.314.748-.542 1.076 1.113-.197 2.052-.649 2.803-1.352.965-.904 1.491-2.11 1.567-3.59a7.31 7.31 0 0 0-.895-2.213Zm0 0c-.741-1.206-1.78-2.143-3.117-2.808a9.239 9.239 0 0 0-2.366-.79h-3.19v2.842h.756c.054 0 .107 0 .16.002V3.8h2.933c1.477 0 2.663.41 3.525 1.218.866.81 1.287 1.89 1.287 3.298 0 1.41-.42 2.488-1.287 3.3a4.26 4.26 0 0 1-1.634.945c-.134.39-.314.748-.542 1.076 1.113-.197 2.052-.649 2.803-1.352.965-.904 1.491-2.11 1.567-3.59a7.31 7.31 0 0 0-.895-2.213Zm3.483-2.624C33.21 2.584 32.1 1.581 30.691.881 29.296.187 27.674-.165 25.87-.165h-7.745v1.458l.517-.54h7.228c1.661 0 3.146.319 4.412.949 1.253.623 2.238 1.51 2.93 2.637.693 1.129 1.044 2.467 1.044 3.978 0 1.512-.351 2.85-1.044 3.979a6.84 6.84 0 0 1-1.642 1.831l-.003.003a7.471 7.471 0 0 1-1.404.861c-1.24.592-2.683.892-4.293.892H19.04V2.678h-.916v14.121h7.745c.547 0 1.079-.032 1.592-.096.7-.088 1.365-.236 1.994-.444.398-.13.78-.284 1.148-.462l.087-.043a8.526 8.526 0 0 0 1.402-.871 7.747 7.747 0 0 0 1.9-2.107c.783-1.275 1.18-2.775 1.18-4.459 0-1.683-.397-3.183-1.18-4.458Zm-4.782 7.757a4.26 4.26 0 0 1-1.634.946c-.134.39-.314.748-.542 1.076 1.113-.197 2.052-.649 2.803-1.352.965-.904 1.491-2.11 1.567-3.59a7.31 7.31 0 0 0-.895-2.213c-.741-1.206-1.78-2.143-3.117-2.808a9.239 9.239 0 0 0-2.366-.79h-3.19v2.842h.756c.054 0 .107 0 .16.002V3.8h2.933c1.477 0 2.663.41 3.525 1.218.866.81 1.287 1.89 1.287 3.298 0 1.41-.42 2.488-1.287 3.3Zm1.299-5.133c-.741-1.206-1.78-2.143-3.117-2.808a9.239 9.239 0 0 0-2.366-.79h-3.19v2.842h.756c.054 0 .107 0 .16.002V3.8h2.933c1.477 0 2.663.41 3.525 1.218.866.81 1.287 1.89 1.287 3.298 0 1.41-.42 2.488-1.287 3.3a4.26 4.26 0 0 1-1.634.945c-.134.39-.314.748-.542 1.076 1.113-.197 2.052-.649 2.803-1.352.965-.904 1.491-2.11 1.567-3.59a7.31 7.31 0 0 0-.895-2.213Zm0 0c-.741-1.206-1.78-2.143-3.117-2.808a9.239 9.239 0 0 0-2.366-.79h-3.19v2.842h.756c.054 0 .107 0 .16.002V3.8h2.933c1.477 0 2.663.41 3.525 1.218.866.81 1.287 1.89 1.287 3.298 0 1.41-.42 2.488-1.287 3.3a4.26 4.26 0 0 1-1.634.945c-.134.39-.314.748-.542 1.076 1.113-.197 2.052-.649 2.803-1.352.965-.904 1.491-2.11 1.567-3.59a7.31 7.31 0 0 0-.895-2.213Zm0 0c-.741-1.206-1.78-2.143-3.117-2.808a9.239 9.239 0 0 0-2.366-.79h-3.19v2.842h.756c.054 0 .107 0 .16.002V3.8h2.933c1.477 0 2.663.41 3.525 1.218.866.81 1.287 1.89 1.287 3.298 0 1.41-.42 2.488-1.287 3.3a4.26 4.26 0 0 1-1.634.945c-.134.39-.314.748-.542 1.076 1.113-.197 2.052-.649 2.803-1.352.965-.904 1.491-2.11 1.567-3.59a7.31 7.31 0 0 0-.895-2.213Zm0 0c-.741-1.206-1.78-2.143-3.117-2.808a9.239 9.239 0 0 0-2.366-.79h-3.19v2.842h.756c.054 0 .107 0 .16.002V3.8h2.933c1.477 0 2.663.41 3.525 1.218.866.81 1.287 1.89 1.287 3.298 0 1.41-.42 2.488-1.287 3.3a4.26 4.26 0 0 1-1.634.945c-.134.39-.314.748-.542 1.076 1.113-.197 2.052-.649 2.803-1.352.965-.904 1.491-2.11 1.567-3.59a7.31 7.31 0 0 0-.895-2.213Zm0 0c-.741-1.206-1.78-2.143-3.117-2.808a9.239 9.239 0 0 0-2.366-.79h-3.19v2.842h.756c.054 0 .107 0 .16.002V3.8h2.933c1.477 0 2.663.41 3.525 1.218.866.81 1.287 1.89 1.287 3.298 0 1.41-.42 2.488-1.287 3.3a4.26 4.26 0 0 1-1.634.945c-.134.39-.314.748-.542 1.076 1.113-.197 2.052-.649 2.803-1.352.965-.904 1.491-2.11 1.567-3.59a7.31 7.31 0 0 0-.895-2.213Zm0 0c-.741-1.206-1.78-2.143-3.117-2.808a9.239 9.239 0 0 0-2.366-.79h-3.19v2.842h.756c.054 0 .107 0 .16.002V3.8h2.933c1.477 0 2.663.41 3.525 1.218.866.81 1.287 1.89 1.287 3.298 0 1.41-.42 2.488-1.287 3.3a4.26 4.26 0 0 1-1.634.945c-.134.39-.314.748-.542 1.076 1.113-.197 2.052-.649 2.803-1.352.965-.904 1.491-2.11 1.567-3.59a7.31 7.31 0 0 0-.895-2.213Zm0 0c-.741-1.206-1.78-2.143-3.117-2.808a9.239 9.239 0 0 0-2.366-.79h-3.19v2.842h.756c.054 0 .107 0 .16.002V3.8h2.933c1.477 0 2.663.41 3.525 1.218.866.81 1.287 1.89 1.287 3.298 0 1.41-.42 2.488-1.287 3.3a4.26 4.26 0 0 1-1.634.945c-.134.39-.314.748-.542 1.076 1.113-.197 2.052-.649 2.803-1.352.965-.904 1.491-2.11 1.567-3.59a7.31 7.31 0 0 0-.895-2.213Zm0 0c-.741-1.206-1.78-2.143-3.117-2.808a9.239 9.239 0 0 0-2.366-.79h-3.19v2.842h.756c.054 0 .107 0 .16.002V3.8h2.933c1.477 0 2.663.41 3.525 1.218.866.81 1.287 1.89 1.287 3.298 0 1.41-.42 2.488-1.287 3.3a4.26 4.26 0 0 1-1.634.945c-.134.39-.314.748-.542 1.076 1.113-.197 2.052-.649 2.803-1.352.965-.904 1.491-2.11 1.567-3.59a7.31 7.31 0 0 0-.895-2.213Zm0 0c-.741-1.206-1.78-2.143-3.117-2.808a9.239 9.239 0 0 0-2.366-.79h-3.19v2.842h.756c.054 0 .107 0 .16.002V3.8h2.933c1.477 0 2.663.41 3.525 1.218.866.81 1.287 1.89 1.287 3.298 0 1.41-.42 2.488-1.287 3.3a4.26 4.26 0 0 1-1.634.945c-.134.39-.314.748-.542 1.076 1.113-.197 2.052-.649 2.803-1.352.965-.904 1.491-2.11 1.567-3.59a7.31 7.31 0 0 0-.895-2.213Zm0 0c-.741-1.206-1.78-2.143-3.117-2.808a9.239 9.239 0 0 0-2.366-.79h-3.19v2.842h.756c.054 0 .107 0 .16.002V3.8h2.933c1.477 0 2.663.41 3.525 1.218.866.81 1.287 1.89 1.287 3.298 0 1.41-.42 2.488-1.287 3.3a4.26 4.26 0 0 1-1.634.945c-.134.39-.314.748-.542 1.076 1.113-.197 2.052-.649 2.803-1.352.965-.904 1.491-2.11 1.567-3.59a7.31 7.31 0 0 0-.895-2.213Zm0 0c-.741-1.206-1.78-2.143-3.117-2.808a9.239 9.239 0 0 0-2.366-.79h-3.19v2.842h.756c.054 0 .107 0 .16.002V3.8h2.933c1.477 0 2.663.41 3.525 1.218.866.81 1.287 1.89 1.287 3.298 0 1.41-.42 2.488-1.287 3.3a4.26 4.26 0 0 1-1.634.945c-.134.39-.314.748-.542 1.076 1.113-.197 2.052-.649 2.803-1.352.965-.904 1.491-2.11 1.567-3.59a7.31 7.31 0 0 0-.895-2.213Zm0 0c-.741-1.206-1.78-2.143-3.117-2.808a9.239 9.239 0 0 0-2.366-.79h-3.19v2.842h.756c.054 0 .107 0 .16.002V3.8h2.933c1.477 0 2.663.41 3.525 1.218.866.81 1.287 1.89 1.287 3.298 0 1.41-.42 2.488-1.287 3.3a4.26 4.26 0 0 1-1.634.945c-.134.39-.314.748-.542 1.076 1.113-.197 2.052-.649 2.803-1.352.965-.904 1.491-2.11 1.567-3.59a7.31 7.31 0 0 0-.895-2.213Zm0 0c-.741-1.206-1.78-2.143-3.117-2.808a9.239 9.239 0 0 0-2.366-.79h-3.19v2.842h.756c.054 0 .107 0 .16.002V3.8h2.933c1.477 0 2.663.41 3.525 1.218.866.81 1.287 1.89 1.287 3.298 0 1.41-.42 2.488-1.287 3.3a4.26 4.26 0 0 1-1.634.945c-.134.39-.314.748-.542 1.076 1.113-.197 2.052-.649 2.803-1.352.965-.904 1.491-2.11 1.567-3.59a7.31 7.31 0 0 0-.895-2.213Zm0 0c-.741-1.206-1.78-2.143-3.117-2.808a9.239 9.239 0 0 0-2.366-.79h-3.19v2.842h.756c.054 0 .107 0 .16.002V3.8h2.933c1.477 0 2.663.41 3.525 1.218.866.81 1.287 1.89 1.287 3.298 0 1.41-.42 2.488-1.287 3.3a4.26 4.26 0 0 1-1.634.945c-.134.39-.314.748-.542 1.076 1.113-.197 2.052-.649 2.803-1.352.965-.904 1.491-2.11 1.567-3.59a7.31 7.31 0 0 0-.895-2.213Zm0 0c-.741-1.206-1.78-2.143-3.117-2.808a9.239 9.239 0 0 0-2.366-.79h-3.19v2.842h.756c.054 0 .107 0 .16.002V3.8h2.933c1.477 0 2.663.41 3.525 1.218.866.81 1.287 1.89 1.287 3.298 0 1.41-.42 2.488-1.287 3.3a4.26 4.26 0 0 1-1.634.945c-.134.39-.314.748-.542 1.076 1.113-.197 2.052-.649 2.803-1.352.965-.904 1.491-2.11 1.567-3.59a7.31 7.31 0 0 0-.895-2.213Zm0 0c-.741-1.206-1.78-2.143-3.117-2.808a9.239 9.239 0 0 0-2.366-.79h-3.19v2.842h.756c.054 0 .107 0 .16.002V3.8h2.933c1.477 0 2.663.41 3.525 1.218.866.81 1.287 1.89 1.287 3.298 0 1.41-.42 2.488-1.287 3.3a4.26 4.26 0 0 1-1.634.945c-.134.39-.314.748-.542 1.076 1.113-.197 2.052-.649 2.803-1.352.965-.904 1.491-2.11 1.567-3.59a7.31 7.31 0 0 0-.895-2.213Zm0 0c-.741-1.206-1.78-2.143-3.117-2.808a9.239 9.239 0 0 0-2.366-.79h-3.19v2.842h.756c.054 0 .107 0 .16.002V3.8h2.933c1.477 0 2.663.41 3.525 1.218.866.81 1.287 1.89 1.287 3.298 0 1.41-.42 2.488-1.287 3.3a4.26 4.26 0 0 1-1.634.945c-.134.39-.314.748-.542 1.076 1.113-.197 2.052-.649 2.803-1.352.965-.904 1.491-2.11 1.567-3.59a7.31 7.31 0 0 0-.895-2.213Zm0 0c-.741-1.206-1.78-2.143-3.117-2.808a9.239 9.239 0 0 0-2.366-.79h-3.19v2.842h.756c.054 0 .107 0 .16.002V3.8h2.933c1.477 0 2.663.41 3.525 1.218.866.81 1.287 1.89 1.287 3.298 0 1.41-.42 2.488-1.287 3.3a4.26 4.26 0 0 1-1.634.945c-.134.39-.314.748-.542 1.076 1.113-.197 2.052-.649 2.803-1.352.965-.904 1.491-2.11 1.567-3.59a7.31 7.31 0 0 0-.895-2.213ZM12.48 12.146a2.187 2.187 0 0 1-.905 1.194c-.609.41-1.434.617-2.453.617H9.024c.003-.046.004-.091.004-.138 0-.294-.05-.555-.15-.783.078.003.157.004.235.004h.009c.834 0 1.487-.155 1.942-.46.409-.275.6-.639.6-1.145 0-.414 0-1.513-2.544-1.513H6.966V6.837l2.741-3.104h-6.27V2.678h.917v.138h6.894l.23.297-3.595 4.071v1.821h.707l-.18.206c1.405.23 2.482.754 3.23 1.57.373.408.652.862.84 1.365ZM2.053 2.678l-.567.61-.654-.61h1.22ZM14.4 15.503a6.492 6.492 0 0 1-1.3.81 7.122 7.122 0 0 1-1.345.476 9.617 9.617 0 0 1-1.584.25c-.31.023-.63.036-.96.036h-.007c-1.165 0-2.325-.156-3.448-.464-1.14-.31-2.126-.762-2.93-1.342l-.133-.095a8.156 8.156 0 0 0 3.332.709c.18 0 .353-.007.518-.02.873.196 1.765.295 2.661.295h.007c1.25 0 2.33-.185 3.217-.55a2.52 2.52 0 0 1-.022.054l.256-.157.03-.014a5.569 5.569 0 0 0 1.131-.7l.102-.063.476.775ZM15.584 2.8l-.09-.086.034-.036.056-.058v.18ZM16.313 11.434c.007 1-.271 1.977-.803 2.824l-.022.034V8.614c.548.8.825 1.746.825 2.82Z"/><path d="M29.21 5.019C28.346 4.21 27.16 3.8 25.684 3.8h-2.933V5.73c1.529.028 2.755.475 3.677 1.34.955.893 1.432 2.104 1.432 3.633 0 .683-.095 1.303-.286 1.86a4.26 4.26 0 0 0 1.634-.946c.867-.81 1.287-1.89 1.287-3.299 0-1.408-.42-2.487-1.287-3.298Zm0 0C28.346 4.21 27.16 3.8 25.684 3.8h-2.933V5.73c1.529.028 2.755.475 3.677 1.34.955.893 1.432 2.104 1.432 3.633 0 .683-.095 1.303-.286 1.86a4.26 4.26 0 0 0 1.634-.946c.867-.81 1.287-1.89 1.287-3.299 0-1.408-.42-2.487-1.287-3.298Zm2.194 3.677a7.31 7.31 0 0 0-.896-2.213c-.741-1.206-1.78-2.143-3.116-2.808a9.24 9.24 0 0 0-2.367-.79 11.797 11.797 0 0 0-2.25-.207h-4.652v14.121h7.745c.548 0 1.079-.032 1.592-.096l.455.742c.027-.016.055-.032.081-.049l.116-.07c.497-.311.944-.667 1.343-1.067a7.27 7.27 0 0 0 1.183-1.56c.654-1.156.981-2.489.981-3.997 0-.707-.072-1.376-.215-2.006ZM19.2 5.727h3.391c.054 0 .107 0 .16.002 1.53.028 2.756.475 3.678 1.34.955.893 1.432 2.104 1.432 3.633 0 .683-.095 1.303-.286 1.86a4.345 4.345 0 0 1-1.146 1.773c-.954.894-2.234 1.341-3.838 1.341h-3.39V5.727Zm10.01-.708C28.346 4.21 27.16 3.8 25.684 3.8h-2.933V5.73c1.529.028 2.755.475 3.677 1.34.955.893 1.432 2.104 1.432 3.633 0 .683-.095 1.303-.286 1.86a4.26 4.26 0 0 0 1.634-.946c.867-.81 1.287-1.89 1.287-3.299 0-1.408-.42-2.487-1.287-3.298ZM15.487 8.614v5.678l.022-.034c.531-.847.81-1.824.803-2.824 0-1.074-.277-2.02-.825-2.82Zm.095-5.936h-.055l-.035.036.09.086v-.122Zm-14.14 11.76-.01.02.015-.016a.166.166 0 0 0-.006-.004Zm11.035-2.292a4.151 4.151 0 0 0-.84-1.364c-.748-.817-1.825-1.34-3.23-1.57l.181-.207h-.708v-1.82l3.595-4.072-.23-.297-.033-.044.122-.094H.8v2.98h6.828l-3.3 3.737v2.053l.045-.088.437.327c.073.055.148.109.225.16h.989c1.554 0 2.504.397 2.851 1.19.1.227.15.488.15.782 0 .047 0 .092-.003.137-.036.592-.301 1.055-.798 1.388-.432.29-.993.463-1.683.519-.165.013-.337.02-.517.02a8.156 8.156 0 0 1-3.332-.71l.131.096c.805.58 1.791 1.031 2.931 1.342 1.124.308 2.284.464 3.448.464h.007c.33 0 .65-.013.96-.037l-.21.129.477.775a4.952 4.952 0 0 0 1.318-1.154 4.772 4.772 0 0 0 1.006-2.969 4.76 4.76 0 0 0-.283-1.673Z"/><path d="M10.438 17.942c-.2.124-.415.24-.643.348-1 .473-2.226.71-3.677.71-1.126 0-2.247-.15-3.334-.447-1.092-.298-2.02-.722-2.784-1.272l1.432-2.82.002-.004.015-.015 2.782-2.798.1-.196.045-.088.436.327a6.69 6.69 0 0 0 1.982.995 7.695 7.695 0 0 0 2.084.354c.1.228.15.49.15.783 0 .047-.002.092-.004.137a8.615 8.615 0 0 1-2.505-.399 7.71 7.71 0 0 1-1.81-.828l-.167-.097-1.66 1.67-.643.646c.147.08.299.155.455.226l.132.095c.804.58 1.79 1.031 2.93 1.342 1.124.308 2.284.464 3.448.464h.007c.33 0 .65-.013.96-.037l-.209.129.476.775Z"/><path d="m1.435 14.457-.002.005-.001-.001.003-.004ZM27.917 17.445c-.17.1-.344.194-.524.283-1.336.665-2.875.997-4.617.997H15.49v-4.433l.022-.034c.531-.847.81-1.824.803-2.824 0-1.074-.277-2.02-.825-2.82V4.333l-2.54 2.54c.863.197 1.436.483 2.119 1.211l.003.004c.153.168.293.343.418.526v5.678c-.285.45-.649.855-1.088 1.21l-.476-.774-.102.063a4.09 4.09 0 0 0 .91-1.019c.44-.701.67-1.508.664-2.334v-.003c0-1.097-.327-1.989-1-2.726-.67-.715-1.127-.875-2.46-1.093l-.882-.144 3.614-3.615-.004-2.594L12.03 3.3v1.785l-3.44 3.92h-.707v-1.82l3.595-4.072-.23-.297-.034-.044.122-.094L13.828.752H3.844l-.406.437-1.384 1.489H.834l-.018-.016L3.43-.148l.008.007v-.024H15.58l.004 2.785-.056.058-.034.036.09.086v-.122h2.54v14.121h7.744c.548 0 1.08-.032 1.593-.096l.455.742Z"/><path d="m18.848.536-.206.216-.518.54-1.326 1.386h-1.214V2.8l-.09-.086.034-.036.056-.058 2.54-2.653.062-.065.427.409.235.225ZM14.405 15.51l-.052.031-1.253.77v.001l-2.659 1.636-.004-.006-.476-.775.209-.129 2.236-1.376.256-.157 1.16-.714.102-.063.476.775.005.006ZM32.117 14.868l-.025.015-1.489.914-2.49 1.528-.116.071-.08.05-.001-.001-.455-.742-.023-.038 2.725-1.674.476-.292a4.338 4.338 0 0 1-.038.067c.344-.19.665-.403.965-.636l.004-.003.067-.041.478.78.002.002Z"/><path d="M19.659.31h-1.673v.442h1.673V.311Z"/></g><defs><clipPath id="a"><path fill="#fff" d="M0 0h35v19H0z"/></clipPath></defs></svg>