<svg width="27" height="33" fill="none" xmlns="http://www.w3.org/2000/svg"><path d="m1.108 29.625 2.128 2.13a1.017 1.017 0 0 0 1.446.006 1.034 1.034 0 0 0 .008-1.457l-2.13-2.13c-.763-.762-.642-2.17.262-3.075L4.6 23.322l.471.471a1.024 1.024 0 0 0 1.375.07L19.16 13.478a6.676 6.676 0 0 0 5.281-1.946 6.676 6.676 0 0 0 1.969-4.752c0-1.795-.7-3.482-1.969-4.752A6.676 6.676 0 0 0 19.69.06a6.677 6.677 0 0 0-4.752 1.968 6.677 6.677 0 0 0-1.946 5.282L2.608 20.025a1.026 1.026 0 0 0 .07 1.374l.47.472-1.777 1.777c-1.72 1.72-1.838 4.401-.263 5.977ZM18.412 8.059c-1.982-1.983-2.53-4.066-2.024-4.578l.001-.002a4.638 4.638 0 0 1 3.301-1.367c1.247 0 2.42.486 3.301 1.367A4.638 4.638 0 0 1 24.36 6.78c0 1.247-.486 2.42-1.368 3.301-.508.51-2.594-.038-4.579-2.022Zm-3.385-1.084c.466.851 1.116 1.716 1.934 2.534.82.82 1.684 1.468 2.536 1.935-.94-.163-2.238-.493-3.108-1.363-.837-.837-1.2-2.166-1.362-3.106ZM4.784 20.605 13.656 9.74a6.732 6.732 0 0 0 3.073 3.074L5.867 21.686l-1.083-1.082Z" fill="#E3BF77"/></svg>