<svg width="42" height="33" fill="none" xmlns="http://www.w3.org/2000/svg"><path fill-rule="evenodd" clip-rule="evenodd" d="m41.258 8.122-.028 21.831a2.77 2.77 0 0 1-.556 1.667 2.785 2.785 0 0 1-2.577 1.097 2.793 2.793 0 0 1-2.443-2.77l.035-27.675A1.783 1.783 0 0 1 36.934.556a1.783 1.783 0 0 1 2.02.646l.061.083a11.51 11.51 0 0 1 2.243 6.837Zm-3.812-6.007c-.115.038-.116.126-.116.16l-.022 17.477 2.295.003.015-11.635a9.864 9.864 0 0 0-1.923-5.861l-.062-.084c-.014-.02-.046-.062-.106-.07a.186.186 0 0 0-.081.01Zm.995 28.982a1.148 1.148 0 0 0 1.149-1.146l.01-8.555-2.294-.003-.011 8.555c0 .633.513 1.149 1.146 1.15ZM9.461 17.755c0-6.854 5.576-12.43 12.43-12.43 6.855 0 12.43 5.576 12.43 12.43s-5.575 12.43-12.43 12.43c-6.854 0-12.43-5.576-12.43-12.43Zm1.64 0c0 5.95 4.84 10.79 10.79 10.79 5.95 0 10.79-4.84 10.79-10.79 0-5.95-4.84-10.79-10.79-10.79-5.95 0-10.79 4.84-10.79 10.79ZM9.155 1.01a.82.82 0 0 0-.821.82l-.01 6.121a1.954 1.954 0 0 1-1.608 1.927l-.548-.001.012-8.051a.82.82 0 0 0-1.64-.002l-.012 8.05h-.549a1.954 1.954 0 0 1-1.602-1.932l.01-6.122A.82.82 0 0 0 .744 1.82L.736 7.94a3.585 3.585 0 0 0 2.322 3.374L2.449 29.48v.006c-.02.776.267 1.51.808 2.066a2.833 2.833 0 0 0 2.042.864h.015a2.83 2.83 0 0 0 2.052-.865c.544-.56.83-1.297.807-2.076l-.54-18.153a3.585 3.585 0 0 0 2.332-3.368l.01-6.121a.82.82 0 0 0-.82-.822ZM6.534 29.524c.01.332-.112.645-.344.883-.231.238-.54.37-.872.369h-.016c-.33 0-.639-.131-.869-.368a1.206 1.206 0 0 1-.344-.877l.604-18.015.652.001h.001l.652.001.536 18.006Zm21.533-11.94a6.2 6.2 0 1 1-12.4 0 6.2 6.2 0 0 1 12.4 0Zm1.8 0a8 8 0 1 1-16 0 8 8 0 0 1 16 0Z" fill="#E3BF77"/></svg>