<svg width="18" height="18" fill="none" xmlns="http://www.w3.org/2000/svg"><path fill-rule="evenodd" clip-rule="evenodd" d="M12.353 0H4.708A4.714 4.714 0 0 0 0 4.708v7.646a4.714 4.714 0 0 0 4.708 4.708h7.645a4.714 4.714 0 0 0 4.709-4.709V4.709A4.714 4.714 0 0 0 12.353 0Zm3.195 12.354a3.198 3.198 0 0 1-3.194 3.194H4.708a3.198 3.198 0 0 1-3.194-3.194V4.708a3.198 3.198 0 0 1 3.194-3.194h7.645a3.198 3.198 0 0 1 3.195 3.194v7.646Zm-7.017-8.22a4.401 4.401 0 0 0-4.396 4.397 4.401 4.401 0 0 0 4.396 4.396 4.401 4.401 0 0 0 4.397-4.396A4.401 4.401 0 0 0 8.53 4.135Zm0 7.28A2.886 2.886 0 0 1 5.65 8.53 2.886 2.886 0 0 1 8.53 5.648a2.886 2.886 0 0 1 2.883 2.883 2.886 2.886 0 0 1-2.883 2.883Zm3.797-8.238c.206-.207.492-.325.784-.325.293 0 .58.118.785.325a1.115 1.115 0 0 1 0 1.57 1.121 1.121 0 0 1-.785.325c-.292 0-.578-.119-.784-.325a1.12 1.12 0 0 1-.326-.785c0-.292.119-.579.326-.785Z" fill="#ABABAB"/></svg>