<svg width="201" height="56" fill="none" xmlns="http://www.w3.org/2000/svg"><path fill-rule="evenodd" clip-rule="evenodd" d="M48.592 2.915c.017.44-.497.796-1.139.79-.602-.008-1.074-.334-1.085-.752-.013-.44.46-.784 1.089-.793.609-.008 1.12.332 1.135.755ZM164.08 28.783c.39.427.576.94.615 1.527-.041.617-.233 1.165-.844 1.46-.551.266-.98.069-1.087-.525-.156-.854.025-1.661.476-2.395.245-.399.527-.41.84-.067Zm-81.884 5.771.094.092c-.363 1.346-.888 2.614-1.877 3.638-.32.33-.742.25-.971-.157-.237-.42-.27-.887.01-1.266.383-.517.806-1.024 1.294-1.438.294-.249.642-.433.99-.617.155-.082.31-.164.46-.252Zm5.791-7.17c.065-.033.13-.065.189-.1.918.086 1.204.473.93 1.3-.292.886-.82 1.604-1.63 2.075-.199.116-.537.184-.714.09-.141-.075-.204-.438-.18-.661.097-.917.476-1.732 1.036-2.454.087-.112.228-.181.369-.25Zm63.792-4.039c.324-.016.527.223.519.604l-.031.08a1.508 1.508 0 0 1-.14.296c-.882 1.34-1.901 2.562-3.137 3.589a3.608 3.608 0 0 1-.804.507c-.117.052-.258.05-.399.047a2.326 2.326 0 0 0-.189 0 2.318 2.318 0 0 0-.022-.18c-.02-.131-.04-.263-.003-.376.429-1.312 1.055-2.509 2.157-3.388.432-.346.883-.672 1.351-.967.199-.127.46-.2.698-.212Zm-2.481-17.782.051.116-.64-.091c-.684-.097-1.384-.196-2.08-.31a.535.535 0 0 1-.345-.267 89.885 89.885 0 0 1-1.052-2.403c-.188-.445-.054-.743.391-.929.991-.413 2.312.158 2.686 1.172.188.508.37 1.018.552 1.528.112.314.223.628.337.941.03.083.065.163.1.243Zm7.108 1.25-.006-.002-3.092-.526a2.071 2.071 0 0 1-.001-.156c.001-.092.003-.17-.023-.236a742.45 742.45 0 0 0-1.23-3.217l-.001-.002-.45-1.171c-.216-.566-.098-.823.487-.975a3.03 3.03 0 0 1 1.993.135c.174.074.35.238.437.407.894 1.732 1.509 3.569 2.005 5.45.021.08.062.157.102.233.018.035.037.07.053.106l-.274-.047ZM21.651 32.594c-.685.455-1.548.683-2.784.678-1.114-.04-2.363-.556-3.341-1.647-.846-.944-1.014-1.996-.503-2.862.699-1.186 1.835-1.728 3.077-1.467 2.124.446 3.888 2.727 3.786 4.919-.006.131-.12.303-.235.379Zm1.127-.815-.01.005c-.409-2.503-1.921-4.056-4.204-4.89-1.677-.613-3.18-.073-4.068 1.337-.676 1.075-.644 2.223.144 3.222 1.01 1.28 2.4 1.888 3.966 2.142 1.156.188 2.26.047 3.277-.662.091 1.965-.313 3.7-1.843 4.997-.788.667-1.768.92-2.76 1.069-2.114.317-4.208.177-6.25-.472-2.124-.676-3.683-2.774-3.786-5.01-.057-1.229.155-2.41.582-3.555 1.236-3.314 3.272-6.022 6.198-8.006 2.453-1.662 5.117-2.128 7.96-1.129 1.1.387 2.092.971 2.872 1.857 1.29 1.465 1.553 3.156.992 4.99-.514 1.68-1.559 2.99-2.944 4.04a.47.47 0 0 1-.094.05l-.023.01-.009.005Zm-1.606-11.795-.587-.1a231.2 231.2 0 0 0 4.045-1.784c4.094-1.837 8.157-3.661 12.512-4.737 1.449-.359 2.904-.69 4.38-1.028h.001c.672-.153 1.349-.308 2.031-.466l-.024.138c-.01.068-.018.115-.034.159-1.415 3.88-2.984 7.691-5.092 11.258-1.436 2.431-3.24 4.568-5.11 6.672-1.959 2.203-4.14 4.096-6.71 5.54-1.688.948-3.467 1.675-5.3 2.28-.033.011-.069.016-.112.02l-.073.01a.638.638 0 0 0 .01-.053c.005-.028.008-.05.02-.065 1.049-1.244 1.49-2.734 1.577-4.31.048-.875.302-1.428 1.076-1.923 1.593-1.02 2.693-2.482 3.097-4.376.498-2.334-.456-4.6-2.476-5.983-.98-.67-2.069-1.057-3.231-1.252Zm3.29 17.518-.156-.088.69-.322.002-.001c.782-.366 1.54-.72 2.304-1.058.115-.05.319.005.44.08 4.782 2.907 9.844 5.225 15.078 7.169 4.973 1.847 10.097 3.172 15.261 4.347a234.264 234.264 0 0 0 16.668 3.146c4.925.751 9.875 1.264 14.85 1.546 7.144.405 14.288.324 21.43-.003 4.074-.187 8.15-.387 12.214-.718 4.201-.342 8.396-.79 12.58-1.298 8.569-1.042 17.04-2.642 25.38-4.874 2.87-.768 5.715-1.634 8.559-2.5h.002c1.053-.32 2.105-.641 3.159-.956.332-.1.584-.095.886.096.43.271.876.517 1.339.771.191.106.386.213.583.324l-.142.054c-.089.034-.167.065-.247.091a202.2 202.2 0 0 1-27.691 7.067 313.71 313.71 0 0 1-14.088 2.217c-3.916.525-7.856.877-11.794 1.213-8.012.684-16.043.927-24.08.731-4.214-.103-8.426-.362-12.633-.641-4.707-.312-9.383-.933-14.039-1.691a166.075 166.075 0 0 1-25.334-6.198c-7.142-2.354-14.098-5.178-20.919-8.343a4.097 4.097 0 0 1-.301-.16v-.001Zm175.965-8.555c-.093 1.019-.407 1.947-1.144 2.775a11.953 11.953 0 0 1-.09-.54c-.056-.37-.109-.717-.239-1.032a27.128 27.128 0 0 0-1.347-2.852c-.931-1.678-2.11-3.165-3.604-4.388-.719-.587-1.542-.967-2.373-1.351l-.23-.107c-1.203-.559-2.393-1.148-3.583-1.737-.586-.29-1.171-.58-1.759-.866-5.039-2.458-10.314-4.274-15.698-5.793-6.196-1.748-12.488-3.063-18.838-4.108a242.926 242.926 0 0 0-16.253-2.092c-11.7-1.12-23.427-1.516-35.173-1.247-4.855.11-9.71.274-14.559.545A307.84 307.84 0 0 0 71.93 7.208 375.897 375.897 0 0 0 57.186 8.98c-7.264 1.02-14.478 2.341-21.568 4.252-3.737 1.007-7.291 2.524-10.844 4.039l-.744.317c-1.784.76-3.586 1.48-5.405 2.15-.434.159-.894.245-1.355.331a11.74 11.74 0 0 0-.988.214c-2.348.652-4.144 2.154-5.741 3.908a15.937 15.937 0 0 0-3.913 7.754c-.568 2.865.59 5.438 3.02 6.84.954.551 2.025.746 3.095.903 1.925.282 3.843.29 5.737-.241.024-.007.051-.006.084-.004a.865.865 0 0 0 .057.002.638.638 0 0 0-.027.047c-.015.028-.027.05-.046.063-.47.291-.94.584-1.41.877-1.342.836-2.685 1.672-4.04 2.489-.994.598-2.114.825-3.257.917-1.798.145-3.577.048-5.307-.515C2.215 42.57.959 40.912.74 38.474c-.196-2.196.417-4.21 1.224-6.194 1.23-3.03 3.202-5.54 5.45-7.865 3.09-3.195 6.746-5.514 10.802-7.281 6.041-2.633 12.281-4.655 18.64-6.332 6.761-1.784 13.597-3.228 20.51-4.257 5.1-.76 10.216-1.45 15.342-2.004 12.336-1.336 24.716-1.745 37.117-1.43 5.104.13 10.209.314 15.304.628 4.747.293 9.487.741 14.221 1.21 6.75.668 13.457 1.661 20.121 2.93 7.714 1.47 15.335 3.304 22.72 6.019 4.2 1.544 8.28 3.346 11.988 5.899 1.759 1.21 3.376 2.582 4.653 4.316 1.059 1.436 1.765 2.99 1.595 4.835Zm-31.525 5.642c.381 2.708 1.621 4.904 3.781 6.665l-.504.161h-.003c-.397.128-.767.246-1.138.361-7.898 2.454-15.909 4.455-24.06 5.85-4.945.845-9.91 1.597-14.884 2.245-4.606.6-9.231 1.08-13.858 1.477a191.52 191.52 0 0 1-24.247.563 188.743 188.743 0 0 1-15.715-1.292c-8.59-1.077-17.107-2.561-25.473-4.83-7.378-2-14.533-4.59-21.305-8.179-.742-.393-1.473-.807-2.205-1.222h-.001l-.92-.52a2.556 2.556 0 0 1-.245-.157c.376-.26.761-.51 1.147-.76.864-.56 1.728-1.119 2.483-1.8 1.326-1.195 2.547-2.51 3.765-3.822l.628-.675c4.003-4.29 6.626-9.394 8.653-14.846l.176-.476c.197-.532.393-1.063.603-1.59.047-.12.173-.268.286-.294.499-.112 1.001-.207 1.542-.31h.006l.575-.11c-.111.324-.216.641-.32.953-.22.667-.433 1.309-.682 1.936-.688 1.731-1.386 3.459-2.084 5.186v.003l-.002.003v.002l-.001.002c-.685 1.695-1.37 3.39-2.045 5.087-.687 1.73-1.363 3.466-1.678 5.315-.119.693.039 1.336.404 1.915.51.81 1.314.861 2.143.706 1.26-.235 2.361-.865 3.456-1.497l.248-.143.007-.004.005-.002.153-.088a2.134 2.134 0 0 1-.057.186c-.042.127-.08.24-.04.285.115.132.315.215.495.26.624.155.938.014 1.288-.537l.843-1.335c.653-1.036 1.306-2.071 1.971-3.1.524-.81 1.295-1.283 2.236-1.454.21-.038.442.004.656.048.297.06.428.28.337.561a5.876 5.876 0 0 1-.432 1.032c-.308.554-.624 1.104-.94 1.653v.002h-.001c-.307.534-.614 1.068-.914 1.606-.091.165-.184.483-.11.554.133.126.403.181.598.151.543-.085.972-.354 1.23-.881.385-.783.785-1.556 1.186-2.33l.292-.565c.503-.975 1.32-1.563 2.357-1.836.745-.197 1.277.1 1 1.022a93.567 93.567 0 0 0-.771 2.782c-.107.399-.213.798-.322 1.196-.149.548-.3 1.123.23 1.54.57.45 1.204.305 1.757-.03.541-.328 1.062-.69 1.582-1.053.22-.154.44-.308.663-.459l.709-.482c0 .078 0 .148-.002.215a6.4 6.4 0 0 0 .003.356c.036.793.633 1.377 1.42 1.396.72.018 1.368-.237 1.97-.586.572-.33 1.128-.688 1.685-1.045.226-.145.451-.29.678-.432.09-.057.179-.117.243-.16l.063-.043c.06.15.113.301.165.45v.002l.001.002c.115.329.228.65.404.93.492.783 1.24.99 2.051.557.734-.392 1.447-.82 2.16-1.249.298-.178.595-.357.894-.532.093-.056.184-.114.266-.166l.002-.001.002-.001.084-.054c0 .105-.002.21-.004.312v.001c-.004.222-.008.439.007.654.072 1.05.756 1.58 1.762 1.295.514-.147 1.008-.369 1.5-.59l.345-.155c.332-.146.656-.308.986-.474.147-.074.294-.148.444-.221.013.128.022.253.03.374.02.257.037.498.085.733.15.748.58 1.072 1.34.98.267-.033.527-.12.787-.207.096-.032.192-.065.288-.094.084-.026.165-.061.266-.106.054-.023.114-.05.183-.078-.013.075-.022.141-.031.202-.017.117-.031.213-.058.305-.305 1.059-.816 1.903-1.87 2.45-.812.422-1.535 1.038-2.243 1.64l-.156.134c-.483.41-.788.983-.716 1.663.147 1.391 1.737 2.053 2.918 1.19.348-.254.685-.602.875-.984a51.548 51.548 0 0 0 1.492-3.338 68.11 68.11 0 0 0 .898-2.35l.001-.002v-.001l.341-.918c.136-.364.38-.607.758-.706l.026.007c.019.004.038.009.045.02.484.849.973 1.023 1.902.7 1.305-.456 1.916-1.444 2.103-2.75.066-.46-.052-.88-.457-1.152.308-.048.616-.093.922-.138.698-.102 1.392-.203 2.077-.345.678-.14 1.348-.322 2.027-.506.296-.08.593-.16.894-.238l-.042.105a9.684 9.684 0 0 1-.122.299c-.086.198-.174.396-.262.594-.477 1.072-.954 2.146-1.143 3.317-.907 5.614 3.087 11.762 9.524 11.801.206.001.412-.058.643-.125.117-.034.24-.07.373-.1-.374-.067-.739-.123-1.095-.179-.793-.122-1.545-.239-2.271-.45-.946-.275-1.894-.665-2.729-1.186-2.186-1.365-3.246-3.447-3.403-5.988-.188-3.042.8-5.776 2.296-8.359.32-.552.664-1.095 1.047-1.604.47-.625-.008-1.312-.636-1.463-.255-.062-.39.068-.47.292-.048.137-.098.273-.148.41-.113.307-.226.614-.314.928-.114.405-.351.67-.706.876-1.499.875-3.135 1.332-4.833 1.575-.588.084-1.185.11-1.781.138-.153.006-.305.013-.457.021a2.908 2.908 0 0 1-.49-.032c-.092-.011-.19-.023-.3-.032.067-.17.129-.333.189-.493.13-.345.252-.67.402-.982.182-.376.385-.741.587-1.107.12-.218.241-.436.358-.656.212-.402.081-.62-.373-.586-.52.038-.947.203-1.165.769-.23.595-.477 1.184-.724 1.773-.259.616-.517 1.23-.755 1.853-.214.558-.39 1.13-.57 1.714-.083.267-.166.536-.253.807h-.052a7.44 7.44 0 0 1-.243 0c-.916-.021-1.76.144-2.423.86a1.431 1.431 0 0 1-.555.349c-.471.17-.749-.05-.675-.546.055-.368.124-.753.286-1.082.598-1.222 1.216-2.435 1.833-3.647.182-.358.365-.715.546-1.073.054-.107.114-.21.181-.325l.103-.18c-.513-.28-1.017-.264-1.516-.153-.105.023-.193.214-.25.344-.127.283-.247.569-.367.854-.193.456-.385.913-.599 1.359-.498 1.041-1.264 1.86-2.244 2.462l-.142.087c-.567.35-1.137.7-1.74.973-.8.362-1.223.033-1.112-.834.052-.406.183-.815.346-1.193.412-.954.838-1.9 1.264-2.848l.533-1.186c.035-.078.065-.158.095-.238l.041-.108c-.954-.2-1.59.112-1.939.968-.213.523-.42 1.048-.628 1.574-.164.417-.328.834-.495 1.249a.669.669 0 0 1-.207.296l-.766.535a68.754 68.754 0 0 1-2.57 1.74c-.991.63-1.49.331-1.53-.84-.038-1.174.241-2.256.9-3.237.221-.33.433-.666.654-1.015l.313-.494c-.519-.287-1.026-.31-1.544-.166-.091.026-.17.168-.215.273-.102.233-.195.47-.287.708l-.102.258c-.867 2.195-2.561 3.543-4.612 4.523-.1.047-.207.08-.313.11-.622.176-.986-.07-.926-.704.043-.462.16-.935.344-1.361.425-.99.874-1.971 1.322-2.951v-.002l.001-.001c.187-.408.374-.817.559-1.225.042-.095.08-.19.119-.289l.052-.131c-1.048-.158-1.586.12-1.965 1.027-.216.515-.427 1.032-.638 1.549v.001c-.241.588-.481 1.176-.728 1.761-.06.144-.183.276-.305.378l-.139.115a95.36 95.36 0 0 1-2.253 1.83c-.27.21-.583.377-.9.505-.327.133-.523-.015-.505-.369.014-.273.065-.557.16-.813.122-.331.256-.66.389-.987.207-.509.414-1.018.581-1.54.222-.695.38-1.421.468-2.146.082-.68-.306-1.052-1.001-1.11-.886-.072-1.7.2-2.493.547-.284.125-.56.27-.836.415l-.38.198c-.386-1.053-.851-1.305-2.023-1.03-.38.09-.752.215-1.144.348-.184.062-.371.125-.566.187l1.167-2.14.004-.008.24-.44c-.02-.026-.033-.047-.044-.063-.017-.026-.027-.04-.04-.043-.695-.134-2.076.561-2.406 1.177a581.881 581.881 0 0 1-3.215 5.933c-.127.23-.34.459-.57.578a77.578 77.578 0 0 1-3.285 1.601c-.293.134-.643.176-.97.192-.585.028-.958-.252-.99-.832-.03-.56-.036-1.166.141-1.685.526-1.538 1.118-3.054 1.71-4.569l.132-.34.253-.647.001-.003c1.157-2.966 2.314-5.932 3.507-8.883.418-1.035.909-2.041 1.4-3.046l.246-.507a.759.759 0 0 1 .484-.358c5.644-.98 11.31-1.81 17.012-2.364 4.887-.474 9.779-.909 14.676-1.252 9.53-.668 19.075-.877 28.624-.705 5.229.094 10.457.32 15.682.568 2.222.106 4.44.286 6.679.467 1.013.082 2.029.164 3.053.24l-.093.266c-.06.175-.114.33-.17.485-1.841 5.072-3.847 10.07-6.464 14.8-2.88 5.207-6.524 9.767-11.261 13.406-2.606 2.003-5.508 3.474-8.493 4.802-.258.114-.512.238-.738.439l.485-.152h.001c.349-.11.698-.218 1.046-.332 4.289-1.407 7.998-3.775 11.364-6.76 4.193-3.718 7.376-8.212 10.137-13.04 2.432-4.254 4.428-8.713 6.153-13.297.108-.29.24-.383.537-.337.352.053.707.09 1.08.13l.5.055-.061.151c-.039.098-.075.19-.114.28-.566 1.304-1.135 2.607-1.705 3.91-1.288 2.947-2.577 5.895-3.814 8.863a77.336 77.336 0 0 0-3.758 11.517c-.379 1.559-.357 3.131.283 4.63.863 2.021 2.398 3.138 4.611 3.28 3.278.21 6.116-.942 8.723-2.818 1.944-1.398 3.591-3.114 5.24-4.832.208-.218.417-.436.627-.653 2.364-2.45 4.397-5.157 6.366-7.922.112-.158.227-.32.37-.447.052-.046.134-.058.217-.07.037-.005.074-.01.108-.019-.001.032.001.065.002.099a.56.56 0 0 1-.015.21c-.037.105-.09.206-.142.306-.025.048-.05.095-.073.143-.539 1.115-1.049 2.243-1.268 3.474-.14.784-.106 1.55.304 2.267.329.575.969.927 1.611.767.432-.107.849-.28 1.265-.45l.328-.134c.469-.187.934-.383 1.431-.592h.001c.222-.093.45-.19.688-.288l-.054.29c-.03.163-.054.293-.082.422-.156.716.027 1.328.584 1.804.539.46 1.152.425 1.762.174.291-.12.581-.274.827-.469.901-.714 1.058-1.575.495-2.581-.091-.162-.194-.317-.309-.49l-.178-.271c1.781-.084 3.349-.779 5.005-1.513l.424-.187c-1.105 2.557-1.58 5.08-1.203 7.75Zm27.14-.017-.61.09c.045-.13.089-.253.132-.372.09-.248.172-.477.233-.711.219-.836.149-1.634-.425-2.323a3.618 3.618 0 0 0-2.387-1.312c-.929-.119-1.554.35-1.742 1.272-.139.68.084 1.268.481 1.794.623.823 1.48 1.285 2.47 1.508.25.056.505.091.767.127.123.017.248.034.374.054l-.012.024-.003.006-.219.444h.687l-.057.123c-.036.077-.066.143-.103.206-1.47 2.526-4.605 3.94-7.503 3.305-3.809-.834-6.438-3.087-7.843-6.751-.721-1.882-1.154-3.8-.759-5.832.556-2.854 3.212-5.267 6.099-5.52.373-.032.746-.06 1.119-.087l.505-.038.017-.114-.423-.228c-.317-.17-.634-.341-.955-.506-6.063-3.11-12.471-5.281-19.038-7.012-7.762-2.047-15.654-3.4-23.609-4.406-.221-.028-.336.011-.446.234-.278.562-.554 1.124-.831 1.687v.002h-.001v.001c-1.053 2.141-2.106 4.282-3.203 6.4-2.486 4.8-4.627 9.731-5.9 15.008-.047.193-.096.386-.144.578-.257 1.018-.513 2.038-.48 3.109.068 2.178 1.212 3.84 3.167 4.415a7.447 7.447 0 0 0 2.171.284c2.273-.03 4.258-.92 6.064-2.241 3.17-2.317 5.886-5.118 8.464-8.062a.79.79 0 0 0 .086-.13l.04-.07c-.02-.004-.036-.01-.05-.014-.024-.007-.04-.012-.052-.007a2.61 2.61 0 0 0-.26.128c-.938.543-1.957.85-3.021 1-.678.098-1.377.14-1.965-.294-.247-.183-.425-.148-.675-.066-.29.094-.579.191-.869.288-.972.325-1.944.65-2.936.894-.864.212-1.778.297-2.668.294-.859-.002-1.214-.549-1.017-1.38.095-.402.248-.796.428-1.169.416-.864.845-1.723 1.273-2.582l.573-1.153c.039-.08.075-.16.116-.251l.064-.144c-.122-.015-.24-.027-.355-.039a6.589 6.589 0 0 1-.706-.096c-.642-.137-.8-.335-.886-.974-.011-.084-.049-.164-.095-.265a3.1 3.1 0 0 1-.079-.18l-.536.733c-.454.621-.886 1.211-1.321 1.798-.233.314-.61.435-.827.253-.323-.272-.134-.548.044-.806a3260.94 3260.94 0 0 1 2.426-3.493c.015-.021.03-.044.044-.068.048-.077.098-.156.167-.183l.087-.036c.189-.078.405-.167.547-.107.152.065.278.359.29.56.014.227-.01.456-.033.685-.016.16-.033.32-.037.479-.019.79.589 1.188 1.282.813.295-.16.556-.412.783-.667.156-.175.291-.369.427-.562.104-.149.208-.298.321-.438.363-.45.694-.52 1.212-.29.424.188.452.283.189.67-1.503 2.215-2.731 4.578-3.755 7.05-.3.724-.047 1.143.722 1.11 1.806-.079 3.515-.49 4.948-1.682a.565.565 0 0 0 .185-.371c.058-2.12 1.042-3.77 2.587-5.124.636-.559 1.406-.894 2.229-1.07.33-.07.694-.085 1.025-.024.592.109.86.62.685 1.196a2.383 2.383 0 0 1-.197.502c-1.239 2.155-2.801 3.99-5.074 5.157.117.386.418.613.835.647.3.025.614.01.907-.052.972-.205 1.844-.649 2.717-1.093.226-.115.452-.23.68-.342.449-.218.762-.526 1.036-.904.237-.327.479-.65.721-.974h.001c.608-.812 1.217-1.624 1.742-2.488.619-1.02 1.581-1.282 2.553-1.547.21-.058.42-.115.628-.18.017-.006.041.007.078.027a.924.924 0 0 0 .084.042l-.244.517c-.185.392-.368.781-.548 1.172-.119.258-.239.515-.36.771a40.317 40.317 0 0 0-.942 2.111 3.748 3.748 0 0 0-.156 2.377c.156.595.453.825 1.06.741.35-.049.725-.138 1.02-.321.801-.501 1.58-1.038 2.359-1.575l.401-.276c.093-.064.156-.192.202-.303l.398-.955a91.68 91.68 0 0 0 1.204-2.98c.219-.583.612-.84 1.175-.887.203-.017.462.028.604.151.072.063-.026.374-.101.55-.265.618-.535 1.234-.805 1.85-.269.616-.539 1.232-.804 1.85-.051.119-.072.25-.096.4a5.919 5.919 0 0 1-.042.238c.163-.014.319-.026.47-.037.322-.024.623-.047.92-.088 1.93-.272 3.588-1.194 5.194-2.228.121-.078.214-.215.294-.342.351-.562 1.201-.875 1.895-.663l-.103.206-.138.273c-1.109 2.224-2.026 4.514-2.315 7.008-.347 2.99.405 5.628 2.569 7.784l.066.066c.341.34.696.695 1.112.913a48.474 48.474 0 0 0 3.678 1.751c3.178 1.334 6.456 2.221 9.948 1.886 2.655-.255 5.076-1.141 6.969-3.086 1.746-1.792 2.96-3.946 3.797-6.307.069-.194.114-.398.155-.588.019-.084.037-.166.056-.243l-2.442.72.023-.1c.053-.229.086-.376.122-.523Zm.005-.002c.144-.034.29-.063.436-.093.327-.065.653-.131.962-.245 1.111-.411 1.122-.456 1.078-1.63a8.897 8.897 0 0 0-.054-.748c-.386-3.075-1.888-5.521-4.266-7.43-2.287-1.836-4.872-2.92-7.861-2.762-1.661.088-3.156.656-4.147 2.054-1.268 1.79-1.823 3.82-1.629 6.027.118 1.342.684 2.535 1.25 3.728l.091.19c.814 1.72 2.061 2.963 3.757 3.858 2.19 1.155 4.353 1.263 6.589.257 1.198-.538 2.09-1.419 2.809-2.563l-.086-.013-.172-.027c-1.008-.147-1.99-.376-2.84-.98-.968-.689-1.451-1.62-1.363-2.823.097-1.334 1.017-2.166 2.344-2.12 1.873.065 3.66 1.98 3.528 3.85-.024.342-.146.676-.268 1.01a8.135 8.135 0 0 0-.158.46ZM19.633 7.605c-.155.09-.31.182-.467.271l.02.043.017.037.148-.038a4.96 4.96 0 0 0 .318-.09c.965-.314 1.93-.63 2.895-.946l.004-.002a985.48 985.48 0 0 1 5.756-1.873c2.788-.895 5.598-1.709 8.55-1.843 1.584-.072 3.13.104 4.6.745.69.3.88.773.476 1.419-.267.427-.609.855-1.018 1.135l-.392.268c-.945.65-1.899 1.305-2.93 1.777a318.33 318.33 0 0 1-10.402 4.538c-1.677.697-3.374 1.347-5.071 1.998-1.304.5-2.608.999-3.903 1.52-4.89 1.965-9.154 4.84-12.668 8.812-2.132 2.41-3.897 5.022-4.85 8.131-.541 1.768-.96 3.545-.554 5.412.527 2.425 1.847 4.114 4.308 4.806 1.757.494 3.54.651 5.353.566 1.501-.07 2.95-.346 4.244-1.162l.215-.136c1.266-.797 2.532-1.596 3.771-2.434 1.498-1.013 3.018-1.978 4.722-2.609.17-.063.415-.07.575.004 8.267 3.883 16.73 7.255 25.465 9.932 11.294 3.46 22.826 5.688 34.584 6.776 4.81.445 9.629.723 14.458.803 7.287.122 14.57-.027 21.84-.566 3.623-.269 7.25-.54 10.858-.962a364.605 364.605 0 0 0 13.143-1.804c5.975-.92 11.887-2.173 17.755-3.63a189.645 189.645 0 0 0 15.476-4.527.89.89 0 0 1 .51-.022c3.626 1.086 7.298 1.613 11.088 1.088 3.047-.422 5.493-1.817 7.319-4.302.927-1.262 1.635-2.645 2.243-4.082.268-.632.526-1.268.784-1.904.452-1.115.903-2.23 1.406-3.32 1.092-2.366.949-4.597-.464-6.772-1.075-1.654-2.456-3.01-4.002-4.209-3.084-2.393-6.535-4.134-10.111-5.638-6.643-2.793-13.558-4.695-20.572-6.264-1.21-.271-2.425-.523-3.632-.773-.558-.116-1.114-.23-1.668-.348l-.459-2.012-.474-2.08a27.136 27.136 0 0 0 1.945-.587c1.374-.453 2.731-.9 4.21-.857-.386-.034-.771-.039-1.154-.043a18.462 18.462 0 0 1-.93-.027c-.896-.057-1.766.006-2.626.278-.514.163-1.043.286-1.572.39-.134.026-.362-.047-.433-.151-.451-.669-1.06-1.136-1.776-1.468a9.341 9.341 0 0 0-3.454-.843c-3.665-.195-7.142.578-10.451 2.123-.764.357-1.503.766-2.243 1.175-.45.249-.9.497-1.355.735-.056.029-.094.076-.133.124-.069.084-.138.169-.304.155a849.06 849.06 0 0 1-3.69-.33h-.001V4.01c-3.357-.306-6.713-.611-10.076-.807-5.456-.318-10.921-.516-16.385-.657a253.265 253.265 0 0 0-20.848.319c-3.795.215-7.59.457-11.375.788-3.48.304-6.957.689-10.421 1.14-2.808.366-5.607.799-8.406 1.23-.873.135-1.746.27-2.62.403-.774.118-1.546.258-2.331.4-.361.066-.725.132-1.093.197.016-.06.03-.116.045-.167.027-.1.05-.186.067-.273.035-.195.075-.39.115-.585v-.002c.094-.458.188-.917.22-1.38.123-1.768-.753-3.052-2.354-3.459A5.467 5.467 0 0 0 47.904 1c-1.163.05-2.324.152-3.484.253l-.168.014c-4.592.398-9.14 1.078-13.619 2.188-3.451.855-6.829 1.925-9.995 3.582-.34.179-.673.374-1.005.569Zm95.26 17.975.127-.235-.408-.048a17.128 17.128 0 0 0-.794-.084c-.347-.026-.519.145-.657.486l-.029.07c-.434 1.068-.87 2.142-1.408 3.158-.666 1.26-1.836 1.973-3.101 2.529-.112.05-.241.067-.364.08-.451.043-.728-.158-.692-.608.037-.462.128-.942.309-1.366a134.13 134.13 0 0 1 1.352-3.032l.001-.002c.186-.407.372-.815.556-1.223.039-.088.074-.179.102-.25l.027-.07-.373-.157-1.023-.428c-.156.397-.317.8-.479 1.207-.399 1-.808 2.025-1.191 3.06-.284.767-.52 1.556-.703 2.353-.225.972.306 1.55 1.273 1.383a4.3 4.3 0 0 0 1.39-.519c.549-.318 1.076-.673 1.604-1.028.232-.156.465-.313.699-.466.094-.06.19-.117.271-.164a5.95 5.95 0 0 0 .095-.056c0 .252-.004.502-.007.751-.008.553-.016 1.098.016 1.641.061 1.026.781 1.575 1.698 1.245.651-.236 1.27-.564 1.886-.89l.001-.001.386-.204c.107-.056.182-.173.258-.29.034-.054.069-.108.107-.156l-.199.001c-.165 0-.331-.001-.495.015-.057.006-.112.047-.166.088-.028.02-.055.041-.083.057-.116.068-.232.138-.347.208-.265.16-.53.32-.809.45-.649.299-1.085.066-1.141-.639-.041-.505-.035-1.035.07-1.529.383-1.812 1.156-3.472 2.089-5.06.048-.081.092-.164.152-.276Zm3.453-10.032.001.001c.37.497.735.987 1.109 1.47.03.04.09.054.15.068.055.013.111.026.148.058l.208.174c.246.202.493.406.678.655.181.245-.002.466-.318.42-.481-.071-.837-.347-1.087-.762-.1-.166-.198-.334-.295-.503a15.017 15.017 0 0 0-.598-.978c-.753-1.1-.77-1.1-2.086-1.176l-.036-.002c-.36-.021-.719-.052-1.078-.09-.059-.007-.116-.035-.174-.064a1.281 1.281 0 0 0-.079-.037l.017-.12.105-.017c.076-.013.152-.027.228-.029l.5-.014c.457-.015.915-.03 1.373-.015 1.004.03 1.82-.441 2.636-.914l.211-.121c.045-.026.074-.08.102-.133.026-.048.052-.095.089-.126a8.98 8.98 0 0 1 .852-.629c.071-.045.266.007.327.079.059.07.068.27.011.334l-.099.114c-.192.223-.39.453-.636.584-.313.165-.638.31-.965.455-.302.134-.607.27-.906.424.278-.013.553.018.829.048.489.054.978.108 1.483-.076.273-.1.605-.054.925-.01.082.011.163.022.242.03.098.011.242.184.246.287.005.102-.118.253-.224.309-.429.225-.874.21-1.326.042l-.04-.015c-.215-.08-.439-.165-.662-.173-.511-.017-1.024-.014-1.557-.011l-.647.002.34.457.003.004Zm-20.142-3.055-.391.253-.056-.075c.103-.173.21-.344.316-.515.258-.414.515-.828.734-1.262.122-.24.146-.537.168-.822l.012-.138c.008-.09-.111-.25-.201-.277-.088-.025-.265.05-.313.133a7.85 7.85 0 0 1-.057.095c-.12.199-.251.416-.24.616.03.515-.175.936-.382 1.361a22.12 22.12 0 0 0-.079.163c-.322.673-.75 1.255-1.384 1.679-.451.301-.883.631-1.316.961l-.161.124a.438.438 0 0 0-.112.173 1.098 1.098 0 0 1-.045.09l.11.068c.115-.068.234-.133.352-.197.263-.142.525-.284.75-.47.79-.654 1.595-.755 2.502-.257.351.193.724.348 1.097.502.135.055.27.11.403.168.428.184.867.194 1.289-.004a.455.455 0 0 0 .226-.306c.01-.083-.117-.247-.208-.267-.064-.014-.129-.03-.195-.046-.287-.07-.583-.143-.848-.087-.367.077-.672.032-1-.086-.168-.06-.34-.113-.512-.166a19.634 19.634 0 0 1-.319-.1c-.204-.067-.407-.136-.632-.213l-.343-.116.545-.365c.547-.367 1.06-.712 1.578-1.048.081-.053.19-.067.295-.08l.056-.007c.506-.07.875-.345 1.111-.782a.497.497 0 0 0-.003-.422c-.046-.075-.252-.099-.373-.075-.445.088-.776.35-1.007.74a1.174 1.174 0 0 0-.048.094c-.034.071-.068.143-.124.181-.394.267-.794.525-1.195.782Zm56.862 6.793c-.136.57-.431 1.105-.989 1.457-.236.149-.362.035-.364-.232-.005-.456.594-1.38 1.005-1.558.283-.122.344.032.348.333Zm-3.104-.58c-.522.364-.819.878-.966 1.543.01.018.02.043.031.07.026.068.058.147.105.157a.459.459 0 0 0 .339-.075c.471-.353.757-.835.887-1.404a.406.406 0 0 0-.098-.324c-.048-.046-.222-.02-.298.033Z" fill="#fff"/></svg>