<svg width="21" height="14" viewBox="0 0 21 14" fill="none" xmlns="http://www.w3.org/2000/svg">
<path fill-rule="evenodd" clip-rule="evenodd" d="M0 1.00002C0 0.447731 0.447715 1.52588e-05 1 1.52588e-05H20C20.5523 1.52588e-05 21 0.447731 21 1.00002C21 1.5523 20.5523 2.00002 20 2.00002H1C0.447715 2.00002 0 1.5523 0 1.00002ZM0 7.00002C0 6.44773 0.447715 6.00002 1 6.00002H20C20.5523 6.00002 21 6.44773 21 7.00002C21 7.5523 20.5523 8.00002 20 8.00002H1C0.447715 8.00002 0 7.5523 0 7.00002ZM1 12C0.447715 12 0 12.4477 0 13C0 13.5523 0.447715 14 1 14H20C20.5523 14 21 13.5523 21 13C21 12.4477 20.5523 12 20 12H1Z" fill="white"/>
</svg>
