<svg width="13" height="13" fill="none" xmlns="http://www.w3.org/2000/svg"><g clip-path="url(#a)"><path d="M12.994 10.258a.629.629 0 0 1-.193.55l-1.83 1.817a1.03 1.03 0 0 1-.324.234 1.34 1.34 0 0 1-.392.124l-.083.006a1.861 1.861 0 0 1-.178.007c-.175 0-.457-.03-.847-.09-.39-.059-.867-.206-1.43-.44-.565-.233-1.205-.584-1.92-1.052-.716-.468-1.478-1.11-2.285-1.927A15.082 15.082 0 0 1 1.915 7.67 12.943 12.943 0 0 1 .897 6.067a8.635 8.635 0 0 1-.578-1.335A7.082 7.082 0 0 1 .057 3.7a3.409 3.409 0 0 1-.055-.681c.01-.165.014-.257.014-.275.018-.129.06-.26.124-.393s.142-.24.234-.323l1.83-1.83a.606.606 0 0 1 .44-.193c.12 0 .225.034.317.103.092.069.17.154.234.255l1.473 2.793a.67.67 0 0 1 .068.482.858.858 0 0 1-.233.44l-.675.675a.23.23 0 0 0-.048.09.34.34 0 0 0-.02.103c.036.192.119.412.247.66.11.22.28.489.51.805.229.317.554.681.976 1.094.413.422.78.75 1.101.984.321.234.59.406.805.516.216.11.381.177.496.2l.172.034a.328.328 0 0 0 .09-.02.23.23 0 0 0 .089-.049l.784-.798a.843.843 0 0 1 .578-.22.72.72 0 0 1 .372.083h.014l2.656 1.569c.192.119.307.27.344.454Z" fill="#E3BF77"/></g><defs><clipPath id="a"><path fill="#fff" d="M0 0h13v13H0z"/></clipPath></defs></svg>