<svg xmlns="http://www.w3.org/2000/svg" width="22" height="12" fill="none"><path fill="#ABABAB" d="M21.883 10.837a1.406 1.406 0 0 0-.074-.137c-.382-.657-1.111-1.463-2.188-2.42l-.023-.022-.011-.01-.012-.012h-.011c-.489-.445-.798-.744-.928-.898-.237-.292-.29-.587-.16-.887.091-.226.435-.704 1.03-1.434.314-.387.562-.697.745-.93 1.321-1.68 1.894-2.753 1.718-3.22l-.068-.11c-.046-.065-.164-.126-.355-.18-.191-.055-.436-.064-.733-.028l-3.3.022a.447.447 0 0 0-.228.006l-.15.033-.057.027-.045.033a.501.501 0 0 0-.126.115.744.744 0 0 0-.115.191c-.359.884-.767 1.705-1.225 2.464-.283.453-.543.845-.78 1.178a5.715 5.715 0 0 1-.595.733c-.16.157-.305.283-.435.378-.13.095-.23.135-.298.12a8.778 8.778 0 0 1-.195-.043.742.742 0 0 1-.257-.269 1.162 1.162 0 0 1-.132-.427 4.52 4.52 0 0 1-.04-.443c-.004-.124-.002-.3.005-.526.008-.226.012-.38.012-.46 0-.277.006-.579.017-.903.011-.325.02-.583.029-.772.008-.19.011-.391.011-.603 0-.211-.013-.377-.04-.498a1.648 1.648 0 0 0-.12-.35.598.598 0 0 0-.235-.263 1.359 1.359 0 0 0-.383-.148c-.405-.088-.92-.135-1.547-.142-1.42-.015-2.333.073-2.738.262-.16.08-.305.19-.435.329-.137.16-.156.248-.057.263.458.065.782.222.973.47l.07.132c.053.095.106.263.16.504.053.24.087.507.103.799.038.533.038.99 0 1.369-.039.38-.075.675-.11.887a1.718 1.718 0 0 1-.154.515 2.145 2.145 0 0 1-.137.24.194.194 0 0 1-.058.055.893.893 0 0 1-.309.055c-.107 0-.237-.051-.39-.153a2.705 2.705 0 0 1-.475-.422 5.646 5.646 0 0 1-.555-.75c-.206-.321-.42-.701-.642-1.139L5.647 3.1a26.874 26.874 0 0 1-.47-.892c-.198-.39-.374-.769-.526-1.134a.726.726 0 0 0-.275-.35L4.318.691a.796.796 0 0 0-.183-.093 1.26 1.26 0 0 0-.263-.071L.733.549c-.32 0-.538.07-.653.208L.034.823A.341.341 0 0 0 0 .998c0 .08.023.179.069.295a35.47 35.47 0 0 0 1.494 2.98 33.153 33.153 0 0 0 1.404 2.31c.397.584.801 1.135 1.214 1.653.412.518.685.85.819.997.133.146.238.255.315.328l.286.263c.184.175.453.385.808.63.355.244.748.485 1.18.723.431.237.933.43 1.506.58.573.15 1.13.21 1.672.18h1.318c.267-.021.47-.102.607-.24l.045-.055a.708.708 0 0 0 .086-.203c.027-.09.04-.191.04-.3a3.452 3.452 0 0 1 .075-.85c.057-.251.122-.441.194-.569a1.405 1.405 0 0 1 .442-.482.764.764 0 0 1 .091-.038c.183-.058.399-.002.647.17.249.172.481.383.7.635.217.252.478.535.784.849.305.314.573.547.802.7l.229.132c.152.088.351.168.595.241.244.073.458.091.642.055l2.932-.044c.29 0 .516-.046.676-.137.16-.091.255-.192.286-.301a.812.812 0 0 0 .006-.373 1.327 1.327 0 0 0-.08-.29Z"/></svg>