<svg width="37" height="32" fill="none" xmlns="http://www.w3.org/2000/svg"><path fill-rule="evenodd" clip-rule="evenodd" d="M31.658 24.368c.767-.382 1.635-.814 3.296-.814a1.055 1.055 0 0 1 0 2.11c-1.164 0-1.69.261-2.354.593-.767.382-1.635.815-3.296.815-1.661 0-2.53-.433-3.296-.815-.665-.332-1.19-.594-2.354-.594-1.164 0-1.69.262-2.355.594-.766.382-1.634.815-3.295.815-1.66 0-2.53-.433-3.296-.815-.665-.332-1.19-.594-2.354-.594-1.164 0-1.689.262-2.354.594-.766.382-1.635.815-3.295.815-1.661 0-2.53-.433-3.296-.815-.665-.332-1.19-.594-2.354-.594a1.055 1.055 0 0 1 0-2.11c1.66 0 2.529.433 3.295.815.665.332 1.19.594 2.355.594 1.164 0 1.689-.262 2.354-.594.645-.321 1.364-.68 2.567-.784V9.854H1.055a1.055 1.055 0 0 1 0-2.11h10.57V3.168A3.17 3.17 0 0 1 14.792 0a3.17 3.17 0 0 1 3.164 3.167v4.578h4.325V3.167A3.17 3.17 0 0 1 25.445 0a3.17 3.17 0 0 1 3.165 3.167v4.578h6.344a1.055 1.055 0 0 1 0 2.11H24.39v13.73c1.199.105 1.915.462 2.56.783.665.332 1.19.594 2.354.594 1.164 0 1.69-.262 2.354-.594Zm-9.378-8.594h-8.544v3.523h8.544v-3.523ZM25.445 2.11c-.582 0-1.055.474-1.055 1.057v4.578h2.11V3.167c0-.583-.473-1.057-1.055-1.057Zm-10.654 0c-.582 0-1.055.474-1.055 1.057v4.578h2.11V3.167c0-.583-.474-1.057-1.055-1.057Zm7.49 11.554v-3.81h-8.545v3.81h8.544Zm-4.277 11.298c1.164 0 1.69-.262 2.354-.594.521-.26 1.09-.542 1.922-.697v-2.264h-8.544v2.265c.828.155 1.394.438 1.914.696.665.332 1.19.594 2.354.594Zm13.654 4.335c.767-.382 1.635-.815 3.296-.815a1.055 1.055 0 0 1 0 2.11c-1.164 0-1.69.262-2.355.593-.766.382-1.634.815-3.295.815s-2.53-.433-3.296-.815c-.665-.331-1.19-.593-2.354-.593-1.164 0-1.69.262-2.354.593-.767.382-1.635.815-3.296.815-1.66 0-2.529-.433-3.295-.815-.666-.331-1.19-.593-2.355-.593-1.164 0-1.689.262-2.354.593-.766.382-1.635.815-3.295.815-1.661 0-2.53-.433-3.296-.815-.665-.331-1.19-.593-2.354-.593a1.055 1.055 0 0 1 0-2.11c1.66 0 2.529.433 3.295.815.665.331 1.19.593 2.355.593 1.164 0 1.689-.262 2.354-.593.766-.382 1.635-.815 3.295-.815 1.661 0 2.53.433 3.296.815.665.331 1.19.593 2.354.593 1.164 0 1.69-.262 2.354-.593.766-.382 1.635-.815 3.296-.815 1.66 0 2.529.433 3.295.815.665.331 1.19.593 2.355.593 1.164 0 1.69-.262 2.354-.593Z" fill="#fff"/></svg>