<svg width="45" height="32" fill="none" xmlns="http://www.w3.org/2000/svg"><path d="M42.678 13.859v-11.1A2.76 2.76 0 0 0 39.92 0H5.08a2.76 2.76 0 0 0-2.757 2.759v11.1A2.741 2.741 0 0 0 0 16.565v6.87c0 .48.389.87.868.87h.93v4.285c0 .48.389.869.868.869h1.567v1.672a.868.868 0 1 0 1.736 0V29.46H39.03v1.672a.868.868 0 1 0 1.736 0V29.46h1.567c.48 0 .868-.39.868-.869v-4.286h.93c.48 0 .868-.389.868-.868v-6.87a2.741 2.741 0 0 0-2.322-2.707Zm-38.62-11.1c0-.564.458-1.022 1.02-1.022h34.843c.563 0 1.02.458 1.02 1.022v11.069h-3.047a84.897 84.897 0 0 0 1.862-2.076.87.87 0 0 0 0-1.14c-2.511-2.889-4.614-4.993-7.5-7.505a.867.867 0 0 0-1.139 0c-2.886 2.512-4.988 4.616-7.5 7.505a.87.87 0 0 0 0 1.14 85.147 85.147 0 0 0 1.863 2.076h-5.96a85.102 85.102 0 0 0 1.862-2.076.87.87 0 0 0 0-1.14c-2.511-2.888-4.614-4.993-7.5-7.505a.867.867 0 0 0-1.14 0c-2.885 2.512-4.988 4.617-7.498 7.505a.87.87 0 0 0 0 1.14 85.374 85.374 0 0 0 1.862 2.076H4.058V2.758Zm23.817 11.069a74.575 74.575 0 0 1-2.448-2.646 67.795 67.795 0 0 1 6.26-6.265 67.793 67.793 0 0 1 6.26 6.265 74.293 74.293 0 0 1-2.448 2.646h-7.624Zm-18.374 0a74.589 74.589 0 0 1-2.448-2.646 67.802 67.802 0 0 1 6.26-6.265 67.805 67.805 0 0 1 6.26 6.265 74.372 74.372 0 0 1-2.448 2.646H9.5ZM41.466 27.72H3.534v-3.417h37.932v3.417Zm1.798-5.154H1.736v-6.002a1 1 0 0 1 1-1h39.529c.55 0 .999.449.999 1v6.002Z" fill="#fff"/></svg>