<svg width="44" height="32" fill="none" xmlns="http://www.w3.org/2000/svg"><path fill-rule="evenodd" clip-rule="evenodd" d="M2 0a1 1 0 0 0-1 1v2.268a2 2 0 0 0 0 3.464v3.536a2 2 0 0 0 0 3.464v3.536a2 2 0 0 0 0 3.464v3.536a2 2 0 0 0 0 3.464V31a1 1 0 1 0 2 0v-3.268c.134-.077.258-.17.37-.274C7.225 28.527 14.387 30 22 30c7.613 0 14.775-1.472 18.63-2.543.112.106.236.198.37.275V31a1 1 0 1 0 2 0v-3.268a2 2 0 0 0 0-3.464v-3.536a2 2 0 0 0 0-3.464v-3.536a2 2 0 0 0 0-3.464V6.732a2 2 0 0 0 0-3.464V1a1 1 0 1 0-2 0v2.268c-.47.272-.82.73-.947 1.274C36.345 5.568 29.383 7 22 7 14.617 7 7.655 5.568 3.947 4.542A2.003 2.003 0 0 0 3 3.268V1a1 1 0 0 0-1-1Zm1.947 25.542C7.655 26.568 14.617 28 22 28c7.383 0 14.345-1.432 18.053-2.458A2.003 2.003 0 0 1 41 24.268v-3.536a2.006 2.006 0 0 1-.37-.274C36.775 21.527 29.613 23 22 23c-7.613 0-14.775-1.472-18.63-2.543a2.006 2.006 0 0 1-.37.275v3.536c.47.272.82.73.947 1.274ZM3 17.268c.47.272.82.73.947 1.274C7.655 19.568 14.617 21 22 21c7.383 0 14.345-1.432 18.053-2.458A2.003 2.003 0 0 1 41 17.268v-3.536a2.006 2.006 0 0 1-.37-.274C36.775 14.527 29.613 16 22 16c-7.613 0-14.775-1.472-18.63-2.543a2.006 2.006 0 0 1-.37.275v3.536Zm.947-5.726C7.655 12.568 14.617 14 22 14c7.383 0 14.345-1.432 18.053-2.458A2.003 2.003 0 0 1 41 10.268V6.732a2.008 2.008 0 0 1-.37-.275C36.775 7.528 29.613 9 22 9 14.387 9 7.225 7.528 3.37 6.457a2.008 2.008 0 0 1-.37.275v3.536c.47.272.82.73.947 1.274Z" fill="#fff"/></svg>